<svg width="80" height="80" viewBox="0 0 80 80" fill="none" xmlns="http://www.w3.org/2000/svg">
<path d="M40 0L74.641 20L74.641 60L40 80L5.35898 60L5.35898 20L40 0Z" fill="#FB4343"/>
<path d="M22.7373 50.0839C22.6918 50.0839 22.6452 50.081 22.5978 50.0742C20.3835 49.7544 18.2593 49.0596 16.2863 48.0082C15.8144 47.7562 15.6351 47.169 15.8871 46.6961C16.14 46.2252 16.7243 46.0459 17.1992 46.2969C18.9725 47.2436 20.8825 47.8677 22.8739 48.1545C23.404 48.2311 23.7713 48.7224 23.6957 49.2525C23.6259 49.736 23.2112 50.0839 22.7373 50.0839Z" fill="white"/>
<path d="M57.2627 50.0839C56.7888 50.0839 56.3741 49.736 56.3043 49.2534C56.2287 48.7234 56.596 48.2321 57.126 48.1555C59.1184 47.8687 61.0274 47.2446 62.8008 46.2978C63.2766 46.0469 63.86 46.2261 64.1129 46.6971C64.3649 47.169 64.1856 47.7572 63.7137 48.0092C61.7407 49.0606 59.6165 49.7554 57.4022 50.0752C57.3547 50.081 57.3082 50.0839 57.2627 50.0839Z" fill="white"/>
<path d="M47.1263 41.3847C46.9441 41.3847 46.761 41.3334 46.5982 41.2277C46.1495 40.9351 46.0226 40.3353 46.3152 39.8866C47.6884 37.7808 50.0083 36.523 52.522 36.523C53.0579 36.523 53.4911 36.9562 53.4911 37.4921C53.4911 38.0279 53.0579 38.4611 52.522 38.4611C50.6653 38.4611 48.952 39.3895 47.9394 40.9448C47.7543 41.2297 47.4442 41.3847 47.1263 41.3847Z" fill="white"/>
<path d="M54.6706 38.4612C51.2353 38.4612 48.334 35.5598 48.334 32.1255C48.334 28.6912 51.2353 25.7899 54.6706 25.7899C58.1049 25.7899 61.0063 28.6912 61.0063 32.1255C61.0063 35.5598 58.1049 38.4612 54.6706 38.4612ZM54.6706 27.728C52.2867 27.728 50.2721 29.7416 50.2721 32.1255C50.2721 34.5094 52.2867 36.5231 54.6706 36.5231C57.0545 36.5231 59.0682 34.5094 59.0682 32.1255C59.0682 29.7416 57.0545 27.728 54.6706 27.728Z" fill="white"/>
<path d="M63.257 44.9024C62.7211 44.9024 62.288 44.4692 62.288 43.9333C62.288 40.9167 59.8334 38.4621 56.8167 38.4621C56.2808 38.4621 55.8477 38.0289 55.8477 37.493C55.8477 36.9572 56.2808 36.524 56.8167 36.524C60.9022 36.524 64.2261 39.8488 64.2261 43.9333C64.2261 44.4683 63.7929 44.9024 63.257 44.9024Z" fill="white"/>
<path d="M56.8166 38.4611H52.5228C51.9869 38.4611 51.5537 38.0279 51.5537 37.4921C51.5537 36.9562 51.9869 36.523 52.5228 36.523H56.8166C57.3525 36.523 57.7857 36.9562 57.7857 37.4921C57.7857 38.0279 57.3515 38.4611 56.8166 38.4611Z" fill="white"/>
<path d="M63.2571 48.1226C62.7213 48.1226 62.2881 47.6894 62.2881 47.1536V43.9334C62.2881 43.3975 62.7213 42.9644 63.2571 42.9644C63.793 42.9644 64.2262 43.3975 64.2262 43.9334V47.1536C64.2262 47.6894 63.793 48.1226 63.2571 48.1226Z" fill="white"/>
<path d="M28.5506 48.8377C28.0147 48.8377 27.5815 48.4046 27.5815 47.8687C27.5815 42.599 31.8686 38.3129 37.1374 38.3129C37.6732 38.3129 38.1064 38.746 38.1064 39.2819C38.1064 39.8178 37.6732 40.251 37.1374 40.251C32.9365 40.251 29.5196 43.6678 29.5196 47.8687C29.5196 48.4046 29.0855 48.8377 28.5506 48.8377Z" fill="white"/>
<path d="M42.8627 40.251H37.1375C36.6016 40.251 36.1685 39.8178 36.1685 39.2819C36.1685 38.746 36.6016 38.3129 37.1375 38.3129H42.8627C43.3985 38.3129 43.8317 38.746 43.8317 39.2819C43.8317 39.8178 43.3985 40.251 42.8627 40.251Z" fill="white"/>
<path d="M32.8735 41.3847C32.5566 41.3847 32.2465 41.2297 32.0605 40.9448C31.0469 39.3904 29.3345 38.4611 27.4778 38.4611C26.942 38.4611 26.5088 38.0279 26.5088 37.4921C26.5088 36.9562 26.942 36.523 27.4778 36.523C29.9925 36.523 32.3115 37.7808 33.6846 39.8866C33.9773 40.3353 33.8503 40.9351 33.4016 41.2277C33.2379 41.3334 33.0547 41.3847 32.8735 41.3847Z" fill="white"/>
<path d="M28.5506 53.1316C28.0147 53.1316 27.5815 52.6985 27.5815 52.1626V47.8687C27.5815 47.3328 28.0147 46.8997 28.5506 46.8997C29.0865 46.8997 29.5196 47.3328 29.5196 47.8687V52.1626C29.5196 52.6985 29.0855 53.1316 28.5506 53.1316Z" fill="white"/>
<path d="M40 40.251C35.5957 40.251 31.8745 36.5298 31.8745 32.1255C31.8745 27.7212 35.5957 24 40 24C44.4043 24 48.1255 27.7212 48.1255 32.1255C48.1255 36.5298 44.4043 40.251 40 40.251ZM40 25.9381C36.6461 25.9381 33.8126 28.7716 33.8126 32.1255C33.8126 35.4794 36.6461 38.3129 40 38.3129C43.3539 38.3129 46.1874 35.4794 46.1874 32.1255C46.1874 28.7716 43.3539 25.9381 40 25.9381Z" fill="white"/>
<path d="M51.4494 48.8377C50.9135 48.8377 50.4803 48.4046 50.4803 47.8687C50.4803 43.6678 47.0634 40.251 42.8626 40.251C42.3267 40.251 41.8936 39.8178 41.8936 39.2819C41.8936 38.746 42.3267 38.3129 42.8626 38.3129C48.1323 38.3129 52.4184 42.5999 52.4184 47.8687C52.4184 48.4046 51.9852 48.8377 51.4494 48.8377Z" fill="white"/>
<path d="M51.4495 53.1316C50.9136 53.1316 50.4805 52.6984 50.4805 52.1625V47.8686C50.4805 47.3328 50.9136 46.8996 51.4495 46.8996C51.9854 46.8996 52.4186 47.3328 52.4186 47.8686V52.1625C52.4186 52.6984 51.9854 53.1316 51.4495 53.1316Z" fill="white"/>
<path d="M39.9997 56C35.9103 56 31.8219 55.0058 28.0939 53.0183C27.622 52.7654 27.4427 52.1791 27.6947 51.7062C27.9476 51.2352 28.531 51.0559 29.0068 51.3069C35.8909 54.9787 44.1104 54.9787 50.9936 51.3069C51.4684 51.0559 52.0537 51.2352 52.3057 51.7062C52.5576 52.1781 52.3783 52.7654 51.9064 53.0183C48.1775 55.0048 44.0891 56 39.9997 56Z" fill="white"/>
<path d="M25.3298 38.4612C21.8955 38.4612 18.9941 35.5598 18.9941 32.1255C18.9941 28.6912 21.8955 25.7899 25.3298 25.7899C28.7641 25.7899 31.6654 28.6912 31.6654 32.1255C31.6654 35.5598 28.7641 38.4612 25.3298 38.4612ZM25.3298 27.728C22.9459 27.728 20.9322 29.7416 20.9322 32.1255C20.9322 34.5094 22.9459 36.5231 25.3298 36.5231C27.7137 36.5231 29.7273 34.5094 29.7273 32.1255C29.7273 29.7416 27.7137 27.728 25.3298 27.728Z" fill="white"/>
<path d="M16.743 44.9024C16.2071 44.9024 15.7739 44.4692 15.7739 43.9333C15.7739 39.8478 19.0987 36.524 23.1833 36.524C23.7192 36.524 24.1523 36.9572 24.1523 37.493C24.1523 38.0289 23.7192 38.4621 23.1833 38.4621C20.1666 38.4611 17.712 40.9157 17.712 43.9333C17.712 44.4683 17.2789 44.9024 16.743 44.9024Z" fill="white"/>
<path d="M27.4773 38.4611H23.1834C22.6475 38.4611 22.2144 38.0279 22.2144 37.4921C22.2144 36.9562 22.6475 36.523 23.1834 36.523H27.4773C28.0132 36.523 28.4463 36.9562 28.4463 37.4921C28.4463 38.0279 28.0132 38.4611 27.4773 38.4611Z" fill="white"/>
<path d="M16.743 48.1226C16.2071 48.1226 15.7739 47.6894 15.7739 47.1536V43.9334C15.7739 43.3975 16.2071 42.9644 16.743 42.9644C17.2789 42.9644 17.712 43.3975 17.712 43.9334V47.1536C17.712 47.6894 17.2789 48.1226 16.743 48.1226Z" fill="white"/>
</svg>
