<svg width="80" height="80" viewBox="0 0 80 80" fill="none" xmlns="http://www.w3.org/2000/svg">
<path d="M40 0L74.641 20L74.641 60L40 80L5.35898 60L5.35898 20L40 0Z" fill="#FB4343"/>
<g clip-path="url(#clip0_777_481)">
<path d="M15.9472 40.1414L19.932 41.7134C20.4586 41.921 21.0327 41.8114 21.4434 41.4672L24.599 43.4574L25.1402 43.8378C24.4537 44.9244 24.6296 46.4091 25.6734 47.2942C26.247 47.7805 26.9758 47.988 27.6891 47.9103C27.731 48.6602 28.072 49.3281 28.627 49.7985C29.1724 50.261 29.8844 50.4978 30.6426 50.4151C30.6848 51.1647 31.0257 51.8324 31.5806 52.3029C32.1311 52.7697 32.8445 53.0015 33.5975 52.9194C33.6369 53.6255 33.9536 54.3149 34.5342 54.8073C35.6559 55.7585 37.3433 55.6205 38.2944 54.4989L38.9276 53.7557L39.9947 54.5432C41.8396 55.905 44.4472 54.7894 44.6877 52.5258C46.5899 53.217 48.6096 51.8839 48.6389 49.8367C50.4319 50.1738 52.0229 48.8715 52.1228 47.1442C54.4484 47.7654 56.5521 45.4152 55.5251 43.1171L58.3767 41.2856C58.785 41.7693 59.4635 41.952 60.0685 41.7133L64.0533 40.1414C64.8203 39.8388 65.1983 38.9686 64.8957 38.2014L63.0744 33.5848C62.926 33.2085 62.5005 33.0239 62.1243 33.1723C61.7479 33.3208 61.5633 33.7462 61.7117 34.1224L63.5329 38.7389C63.5391 38.7546 63.5314 38.7725 63.5157 38.7788L59.5309 40.3507C59.515 40.3569 59.4974 40.3493 59.4911 40.3335C59.3516 39.9798 54.8788 28.642 54.4833 27.6394C54.4818 27.6359 54.4786 27.6277 54.4837 27.6161C54.4888 27.6045 54.4971 27.6012 54.5005 27.5998L58.4855 26.0277C58.4889 26.0262 58.497 26.023 58.5089 26.0281C58.5204 26.0332 58.5236 26.0414 58.5251 26.0449L60.4559 30.9388C60.6044 31.3152 61.0298 31.4998 61.4059 31.3513C61.7823 31.2029 61.967 30.7775 61.8185 30.4012L59.8878 25.5074C59.5854 24.7404 58.715 24.3625 57.948 24.6651L53.963 26.2372C53.251 26.518 52.8751 27.2821 53.0661 28.0064L50.9299 28.7949C50.2652 29.0403 49.5435 29.1115 48.8431 29.0005L46.6837 28.6582C46.2843 28.595 45.9089 28.8675 45.8457 29.2669C45.7825 29.6664 46.0549 30.0417 46.4544 30.1049L48.6138 30.4472C49.5613 30.5973 50.5375 30.5011 51.4372 30.169L53.5928 29.3733C53.8268 29.9665 57.519 39.3256 57.7613 39.9398L54.6184 41.9584L54.565 41.9191C54.5649 41.9189 54.5646 41.9187 54.5644 41.9186C54.2276 41.6701 48.7627 37.6371 48.5063 37.4477C48.3492 37.3318 48.1541 37.2797 47.9297 37.3178C44.8955 37.8337 42.1771 36.7548 40.1772 34.6667C39.5549 34.017 38.5397 33.9821 37.8656 34.5874C35.9254 36.3298 33.2142 38.029 31.3173 36.2261C31.1288 36.0471 31.1274 35.7165 31.4136 35.5317C33.83 33.9773 36.3333 31.7948 38.3477 29.7569C38.8491 29.2496 39.5702 29.0137 40.2779 29.1259L43.058 29.5667C43.4583 29.63 43.8328 29.3574 43.896 28.958C43.9593 28.5585 43.6869 28.1832 43.2873 28.1199L40.5072 27.6792C39.3349 27.4934 38.1383 27.8852 37.306 28.7272C37.073 28.9629 36.7974 29.2365 36.4867 29.5366C35.5488 29.2041 34.5712 29.0054 33.5769 28.9496C30.6664 28.7861 30.4139 28.7552 29.753 28.7977C29.2343 28.8308 28.7065 28.7426 28.2265 28.5419L26.9357 28.0017C27.122 27.2816 26.7468 26.5167 26.0376 26.237L22.0527 24.6651C21.2854 24.3624 20.4153 24.7403 20.1128 25.5074L15.1049 38.2014C14.8017 38.9702 15.1781 39.838 15.9472 40.1414ZM28.3175 46.0371C27.8883 46.5434 27.1272 46.6062 26.6208 46.1769C26.111 45.7447 26.0532 44.9849 26.4801 44.4815L28.2917 42.3551C28.7107 41.8607 29.4738 41.7792 29.9883 42.2154C30.4958 42.6456 30.5585 43.4045 30.128 43.9121C30.1278 43.9122 30.1277 43.9124 30.1275 43.9126L28.3175 46.0371ZM31.271 48.5416C30.8408 49.049 30.0821 49.1117 29.5744 48.6813C29.0646 48.2491 29.0068 47.4893 29.4337 46.9859L31.2453 44.8595C31.6952 44.3287 32.5291 44.2823 33.0311 44.8036C33.0344 44.807 33.0373 44.8108 33.0406 44.8143C33.4541 45.254 33.481 45.9454 33.0816 46.4165L31.271 48.5416ZM34.2246 51.0459C33.7928 51.5552 33.0334 51.6141 32.528 51.1856C32.0182 50.7534 31.9603 49.9937 32.3872 49.4903L34.1989 47.3638C34.6293 46.8564 35.3931 46.7978 35.8956 47.2242C36.4018 47.6536 36.4644 48.4146 36.0352 48.9208C36.035 48.921 36.0349 48.9212 36.0347 48.9214L34.2246 51.0459ZM38.9987 51.4123C38.9957 51.416 38.993 51.4201 38.9899 51.4238C38.6977 51.7667 37.8925 52.7117 37.1782 53.5502C36.749 54.0566 35.9879 54.1192 35.4816 53.69C34.9753 53.2607 34.9127 52.4996 35.3408 51.9947L37.1525 49.8682C37.5841 49.359 38.3443 49.3003 38.8491 49.7285C39.3457 50.1494 39.4218 50.9006 38.9987 51.4123ZM26.4094 29.3697L27.661 29.8934C28.3479 30.1808 29.1038 30.3075 29.8467 30.2597C30.4068 30.2237 30.5938 30.2493 33.4945 30.4123C34.0901 30.4458 34.679 30.538 35.2541 30.6876C33.821 31.9817 32.2116 33.2789 30.5996 34.314C29.5661 34.9775 29.413 36.4376 30.3082 37.2884C31.5317 38.451 34.2679 39.7875 38.8443 35.6775C38.9263 35.6039 39.047 35.6048 39.119 35.6801C41.3358 37.994 44.478 39.2865 47.8712 38.8096C48.2557 39.0798 47.5113 38.5343 53.6943 43.0975H53.6943C54.3561 43.5858 54.5411 44.5461 54.0231 45.2089C53.531 45.8385 52.6418 45.9605 51.9993 45.4862C51.1314 44.8455 51.7722 45.3331 48.7209 42.9821C48.4002 42.7351 47.9406 42.7948 47.6936 43.1152C47.4468 43.4356 47.5064 43.8955 47.8267 44.1424L50.3582 46.093C50.7944 46.6676 50.7424 47.498 50.2261 48.013C49.7185 48.5196 48.8829 48.5674 48.2824 48.1244C47.7019 47.696 48.1842 48.0631 45.5215 46.0131C45.201 45.7662 44.7411 45.8262 44.4944 46.1467C44.2476 46.4672 44.3074 46.9271 44.6279 47.1739L46.8726 48.9021C47.2965 49.4504 47.2757 50.2391 46.8128 50.7639C46.3148 51.3285 45.4324 51.4072 44.8036 50.9431C43.7934 50.1976 44.3004 50.5825 42.3549 49.0768C42.035 48.8292 41.575 48.8878 41.3274 49.2077C41.0798 49.5277 41.1384 49.9876 41.4583 50.2352L43.0145 51.4396C43.3685 52.003 43.2992 52.7408 42.8336 53.2278C42.3255 53.7593 41.4789 53.8182 40.8643 53.3646L39.8797 52.638L40.1059 52.3725C40.5569 51.8408 40.7897 51.1523 40.7301 50.4278C40.6696 49.6939 40.3208 49.0562 39.7963 48.6113C39.2507 48.1487 38.5381 47.9117 37.7801 47.9939C37.7403 47.2863 37.4158 46.593 36.8427 46.1069C36.2992 45.646 35.6091 45.4245 34.8979 45.4827C34.8742 45.4846 34.8504 45.4869 34.8269 45.4895C34.8255 45.4661 34.8248 45.4426 34.8228 45.4191C34.7762 44.8528 34.5555 44.3283 34.1927 43.9051C34.1905 43.9025 34.1884 43.8998 34.1862 43.8972C33.609 43.2295 32.7499 42.8922 31.8742 42.9864C31.833 42.2509 31.4996 41.5765 30.9355 41.0982C29.813 40.1465 28.1258 40.2854 27.1753 41.4065L26.0715 42.7021L25.4263 42.2486C25.4163 42.2415 25.4061 42.2347 25.3958 42.2283L22.1452 40.1782C24.6027 33.949 23.6822 36.2823 26.4094 29.3697ZM16.4675 38.7391L21.4753 26.0451C21.4801 26.033 21.4916 26.0257 21.5038 26.0257C21.5075 26.0257 21.5113 26.0263 21.515 26.0278L25.4999 27.5999C25.5156 27.606 25.5233 27.6239 25.5172 27.6395C25.2763 28.2503 20.6669 39.9341 20.5093 40.3336C20.5028 40.3496 20.4856 40.3571 20.4696 40.3508L16.4848 38.7788C16.4689 38.7725 16.4611 38.7548 16.4675 38.7391Z" fill="white"/>
</g>
<defs>
<clipPath id="clip0_777_481">
<rect width="50" height="50" fill="white" transform="translate(15 15)"/>
</clipPath>
</defs>
</svg>
