<svg width="80" height="80" viewBox="0 0 80 80" fill="none" xmlns="http://www.w3.org/2000/svg">
<path d="M40 0L74.641 20L74.641 60L40 80L5.35898 60L5.35898 20L40 0Z" fill="#FB4343"/>
<g clip-path="url(#clip0_777_479)">
<path d="M60.4305 30.5037C60.4304 30.5037 60.4304 30.5037 60.4304 30.5037L60.429 30.5023L57.8472 30.134C57.4843 30.0823 57.232 29.7462 57.2837 29.3833C57.3085 29.2089 57.4016 29.0516 57.5425 28.9459L59.6292 27.3808C59.9225 27.1609 59.9819 26.7449 59.762 26.4516L57.3726 23.2658C57.1527 22.9725 56.7367 22.9131 56.4434 23.133L54.3573 24.6981C54.0653 24.9197 53.649 24.8626 53.4274 24.5706C53.3198 24.4288 53.2736 24.2497 53.2993 24.0735L53.6684 21.4916C53.7204 21.1288 53.4684 20.7925 53.1056 20.7404C53.1054 20.7404 53.1051 20.7403 53.1049 20.7403L49.165 20.1775C48.8022 20.1254 48.4658 20.3773 48.4137 20.7401C48.4137 20.7402 48.4137 20.7402 48.4137 20.7403L48.0447 23.3222C47.993 23.6851 47.6569 23.9374 47.294 23.8857C47.1196 23.8609 46.9623 23.7677 46.8566 23.6268L45.2922 21.5401C45.0723 21.2468 44.6563 21.1874 44.363 21.4074L42.3685 22.904C41.4662 22.8081 40.5562 22.8081 39.6539 22.904C33.7446 23.5795 29.1106 28.2921 28.5346 34.2119C28.5166 34.3997 28.51 34.5862 28.5007 34.7727H28.3016C27.9867 34.7733 27.7155 34.9951 27.6525 35.3037L27.1938 37.4847L25.3567 36.2176C25.093 36.0357 24.7369 36.0681 24.5104 36.2946L22.5193 38.2858C22.2931 38.5122 22.2607 38.8678 22.4423 39.1314L23.7033 40.9652L21.5217 41.4239C21.2165 41.4907 20.9993 41.7613 21 42.0737V44.7285C20.9998 45.0425 21.2198 45.3136 21.527 45.3783L23.7086 45.837L22.4476 47.6708C22.2661 47.9344 22.2984 48.29 22.5246 48.5164L24.5157 50.5076C24.7422 50.7341 25.0983 50.7665 25.362 50.5846L27.1958 49.3202L27.6545 51.5018C27.7174 51.8104 27.9887 52.0322 28.3036 52.0328H30.9585C31.2724 52.033 31.5435 51.813 31.6083 51.5058L32.0669 49.3241L33.9008 50.5852C34.1643 50.7667 34.5199 50.7344 34.7463 50.5082L35.7771 49.4741V51.3658C35.7801 52.31 36.2859 53.181 37.1045 53.6516V57.3392C37.1045 58.8055 38.2932 59.9941 39.7594 59.9941H42.4143C43.8806 59.9941 45.0692 58.8055 45.0692 57.3392V53.6516C45.8878 53.181 46.3937 52.31 46.3966 51.3658V48.7387C46.4146 47.6334 46.9929 46.6129 47.9318 46.0294C48.4826 45.6721 49.005 45.2726 49.4942 44.8347L48.6088 43.8458C48.1712 44.238 47.7036 44.5955 47.2104 44.915C45.8925 45.7422 45.0857 47.1828 45.0692 48.7387V51.3658C45.0692 52.0989 44.4749 52.6932 43.7418 52.6932H38.432C37.6988 52.6932 37.1045 52.0989 37.1045 51.3658V48.6837C37.0892 47.1572 36.2951 45.7444 34.9992 44.9376C29.7386 41.6321 28.1537 34.688 31.4592 29.4274C33.5101 26.1635 37.0894 24.1769 40.9442 24.1631C40.9343 24.1868 40.9256 24.2109 40.9183 24.2355C40.8936 24.4097 40.9393 24.5867 41.0451 24.7273L42.6094 26.8134C42.7744 27.0268 42.7902 27.32 42.6493 27.5501C42.5135 27.7816 42.2511 27.9078 41.9855 27.8693L39.4037 27.5003C39.0408 27.4483 38.7045 27.7003 38.6524 28.0631C38.6524 28.0633 38.6523 28.0636 38.6523 28.0638L38.0888 32.0057C38.0368 32.3685 38.2888 32.7048 38.6516 32.7569C38.6518 32.7569 38.6521 32.757 38.6523 32.757L41.2342 33.126C41.5971 33.1777 41.8494 33.5138 41.7977 33.8767C41.7729 34.0511 41.6797 34.2084 41.5389 34.3141L39.4528 35.8785C39.1595 36.0984 39.1001 36.5144 39.32 36.8077L41.7094 39.9935C41.9294 40.2868 42.3454 40.3462 42.6386 40.1263L44.7254 38.5619C45.0189 38.3424 45.4349 38.4024 45.6544 38.696C45.7595 38.8364 45.8047 39.0128 45.78 39.1865L45.4117 41.7683C45.3596 42.1311 45.6115 42.4676 45.9743 42.5197C45.9744 42.5197 45.9744 42.5197 45.9745 42.5197L49.917 43.0832C49.948 43.0872 49.9793 43.0891 50.0106 43.0891C50.3411 43.0896 50.6214 42.8468 50.6683 42.5197L51.0367 39.9378C51.0884 39.5749 51.4245 39.3226 51.7874 39.3743C51.9618 39.3991 52.1191 39.4923 52.2248 39.6331L53.7898 41.7192C54.0098 42.0125 54.4258 42.0719 54.719 41.852L57.9049 39.4626C58.1982 39.2426 58.2576 38.8266 58.0376 38.5334L56.4733 36.4473C56.3091 36.2335 56.2932 35.9408 56.4334 35.7106C56.5663 35.476 56.8311 35.3489 57.0972 35.392L59.679 35.7603C60.0418 35.8124 60.3783 35.5605 60.4304 35.1977C60.4304 35.1976 60.4304 35.1976 60.4304 35.1975L60.9932 31.255C61.0453 30.8921 60.7934 30.5558 60.4305 30.5037ZM38.432 54.0206H43.7418V55.3481H38.432V54.0206ZM38.432 56.6755H43.7418V57.3392C43.7418 58.0724 43.1475 58.6667 42.4143 58.6667H39.7594C39.0263 58.6667 38.432 58.0724 38.432 57.3392V56.6755ZM33.1481 45.2296C33.5105 45.526 33.8891 45.8019 34.2824 46.056C34.9095 46.4523 35.3816 47.0519 35.6198 47.7544L34.1961 49.1755L32.8176 48.225C32.2139 47.809 31.3873 47.9612 30.9713 48.5648C30.8715 48.7096 30.8015 48.8727 30.7653 49.0447L30.4175 50.702H28.8399L28.4921 49.0474C28.3411 48.33 27.6371 47.8708 26.9197 48.0218C26.7477 48.0579 26.5846 48.128 26.4399 48.2277L25.0606 49.1755L23.8513 47.9688L24.8011 46.5909C25.2175 45.9875 25.0659 45.1609 24.4625 44.7445C24.3176 44.6445 24.1543 44.5743 23.9821 44.538L22.3274 44.1896V42.6126L23.9821 42.2641C24.6993 42.1121 25.1574 41.4074 25.0053 40.6902C24.9692 40.52 24.9001 40.3587 24.8018 40.2152L23.8513 38.8334L25.0606 37.6267L26.4405 38.5772C27.0444 38.9927 27.871 38.8401 28.2866 38.2362C28.3861 38.0916 28.456 37.9286 28.4921 37.7568L28.6082 37.2046C28.7146 37.9694 28.8907 38.7227 29.1346 39.4553C26.9507 39.7156 25.3913 41.6972 25.6517 43.881C25.912 46.0649 27.8936 47.6243 30.0775 47.3639C31.3921 47.2071 32.5429 46.4073 33.1481 45.2296ZM32.1173 44.2945C31.6217 45.6721 30.1032 46.3871 28.7256 45.8915C27.3479 45.3959 26.6329 43.8774 27.1285 42.4998C27.5076 41.4459 28.5083 40.7439 29.6283 40.7462C29.6369 40.7462 29.6449 40.7462 29.6535 40.7462C30.2639 42.0623 31.0974 43.2627 32.1173 44.2945ZM59.2065 34.3506L57.2817 34.0758C56.193 33.9203 55.1845 34.6769 55.029 35.7655C54.9543 36.2882 55.0904 36.8193 55.4073 37.2418L56.5735 38.7969L54.4496 40.3898L53.2827 38.8354C52.623 37.9555 51.375 37.7771 50.4952 38.4368C50.0727 38.7535 49.7934 39.2252 49.7186 39.748L49.4498 41.6754L46.8221 41.2998L47.0969 39.375C47.2528 38.2864 46.4966 37.2775 45.408 37.1217C44.8849 37.0468 44.3536 37.1829 43.9309 37.4999L42.3758 38.6661L40.7829 36.5422L42.3373 35.3754C43.2172 34.7156 43.3956 33.4676 42.7359 32.5878C42.4191 32.1654 41.9475 31.886 41.4247 31.8112L39.4999 31.5364L39.8756 28.9087L41.8004 29.1835C42.889 29.3394 43.8978 28.5833 44.0536 27.4947C44.1285 26.9716 43.9925 26.4403 43.6754 26.0176L42.5052 24.4611L44.6291 22.8682L45.796 24.4233C46.4557 25.3032 47.7038 25.4816 48.5835 24.8219C49.006 24.5051 49.2853 24.0335 49.3602 23.5107L49.6349 21.5859L52.2626 21.9609L51.9878 23.8857C51.8323 24.9744 52.5888 25.9829 53.6775 26.1384C54.2003 26.213 54.7313 26.077 55.1538 25.76L56.7089 24.5939L58.3018 26.7178L56.7467 27.8846C55.8669 28.5444 55.6884 29.7924 56.3481 30.6722C56.6649 31.0946 57.1366 31.374 57.6593 31.4488L59.5841 31.7236L59.2065 34.3506Z" fill="white"/>
<path d="M49.5398 26.3195C46.6073 26.3195 44.23 28.6968 44.23 31.6293C44.23 34.5618 46.6073 36.9391 49.5398 36.9391C52.4722 36.9391 54.8495 34.5618 54.8495 31.6293C54.8462 28.6981 52.4709 26.3228 49.5398 26.3195ZM49.5398 35.6116C47.3403 35.6116 45.5574 33.8287 45.5574 31.6293C45.5574 29.4299 47.3403 27.647 49.5398 27.647C51.7392 27.647 53.5221 29.4299 53.5221 31.6293C53.5195 33.8276 51.7381 35.6091 49.5398 35.6116Z" fill="white"/>
<path d="M41.7503 49.3746H40.4229V51.3657H41.7503V49.3746Z" fill="white"/>
<path d="M38.1837 42.8562C34.0864 41.2556 32.0625 36.6366 33.6631 32.5394C34.2834 30.9517 35.3965 29.605 36.839 28.697L36.1294 27.574C31.7874 30.3094 30.4849 36.0469 33.2203 40.3889C34.2797 42.0706 35.8504 43.3682 37.7018 44.0913C39.3405 44.7192 40.4226 46.2922 40.4231 48.0471H41.7505C41.7526 45.7447 40.3337 43.6798 38.1837 42.8562Z" fill="white"/>
<path d="M58.3438 44.7285H53.6978V46.056H58.3438V44.7285Z" fill="white"/>
<path d="M53.4586 48.2005L52.6089 49.2204L56.5915 52.5385L57.4412 51.5186L53.4586 48.2005Z" fill="white"/>
<path d="M51.0428 50.0383H49.7153V54.6843H51.0428V50.0383Z" fill="white"/>
<path d="M26.9871 30.1461L21.6777 31.4733L21.9995 32.7604L27.3089 31.4332L26.9871 30.1461Z" fill="white"/>
<path d="M23.5514 23.6139L22.7803 24.6935L27.426 28.0117L28.1971 26.9321L23.5514 23.6139Z" fill="white"/>
<path d="M29.7533 20.0055L28.4673 20.3344L29.8248 25.6437L31.1108 25.3149L29.7533 20.0055Z" fill="white"/>
</g>
<defs>
<clipPath id="clip0_777_479">
<rect width="40" height="40" fill="white" transform="translate(21 20)"/>
</clipPath>
</defs>
</svg>
