<svg width="70" height="80" viewBox="0 0 70 80" fill="none" xmlns="http://www.w3.org/2000/svg">
<path d="M34.9999 0L69.6409 20L69.6409 60L34.9999 80L0.358887 60L0.358887 20L34.9999 0Z" fill="#FB4343"/>
<path d="M43.1191 36.4305C43.4426 36.4305 43.705 36.1682 43.705 35.8445V34.944H44.6055C44.9291 34.944 45.1915 34.6817 45.1915 34.3581C45.1915 34.0344 44.9291 33.7721 44.6055 33.7721H43.705V32.8716C43.705 32.548 43.4426 32.2857 43.1191 32.2857C42.7955 32.2857 42.5331 32.548 42.5331 32.8716V33.7721H41.6326C41.309 33.7721 41.0466 34.0344 41.0466 34.3581C41.0466 34.6817 41.309 34.944 41.6326 34.944H42.5331V35.8445C42.533 36.1681 42.7955 36.4305 43.1191 36.4305Z" fill="white"/>
<path d="M31.9684 42.6937C31.9684 42.3701 31.7061 42.1078 31.3825 42.1078H30.4819V41.2073C30.4819 40.8836 30.2196 40.6213 29.896 40.6213C29.5724 40.6213 29.31 40.8836 29.31 41.2073V42.1078H28.4094C28.0858 42.1078 27.8235 42.3701 27.8235 42.6937C27.8235 43.0174 28.0858 43.2797 28.4094 43.2797H29.31V44.1801C29.31 44.5038 29.5723 44.7661 29.8959 44.7661C30.2195 44.7661 30.4818 44.5038 30.4818 44.1801V43.2798H31.3824C31.7061 43.2798 31.9684 43.0174 31.9684 42.6937Z" fill="white"/>
<path d="M54.241 32.4986H52.8838C52.793 32.0183 52.667 31.545 52.507 31.0849L53.68 30.4076C53.9003 30.2807 54.0416 30.0533 54.0579 29.8035C54.0689 29.6518 54.0344 29.5018 53.9582 29.3697L52.8581 27.4642C52.7567 27.2887 52.5931 27.1631 52.3973 27.1108C52.2016 27.0583 51.997 27.0853 51.8216 27.1866L50.6488 27.8637C50.33 27.4937 49.9837 27.1464 49.6142 26.8266L50.29 25.6562C50.3663 25.5243 50.4007 25.3743 50.39 25.227C50.3737 24.9729 50.2323 24.7453 50.0123 24.6185L48.107 23.5183C47.7448 23.3089 47.2797 23.4334 47.0701 23.796L46.9542 23.9968C46.9499 24.0042 46.9458 24.0117 46.9419 24.0193L46.3988 24.9601C45.9365 24.7981 45.4608 24.6701 44.978 24.578V23.2365C44.978 22.8182 44.6376 22.4777 44.2191 22.4777H42.0189C41.6006 22.4777 41.26 22.818 41.26 23.2365V24.5712C40.7753 24.6617 40.2976 24.7883 39.833 24.9494L39.4447 24.2769C39.4407 24.2691 39.4366 24.2615 39.4321 24.254L39.1676 23.7958C38.9582 23.4337 38.4932 23.3092 38.1311 23.5183L36.2261 24.6183C36.0057 24.7454 35.8643 24.9729 35.8483 25.223C35.8375 25.3746 35.8721 25.5244 35.9481 25.6562L36.6109 26.8043C36.237 27.1258 35.8864 27.4757 35.5636 27.849L34.4165 27.1866C34.2411 27.0852 34.0366 27.0582 33.8407 27.1107C33.6449 27.1631 33.4812 27.2886 33.3798 27.4642C32.1986 29.5101 32.1581 29.4951 32.1797 29.7988C32.2116 30.2955 32.5887 30.4254 33.1418 30.7447C32.7727 30.6421 32.3984 30.5559 32.0207 30.4878V28.669C32.0207 28.2257 31.66 27.865 31.2166 27.865H28.4422C27.9989 27.865 27.6381 28.2256 27.6381 28.669V30.4796C26.9496 30.601 26.2722 30.7806 25.6166 31.0154L25.0617 30.0541C25.0572 30.0454 25.0526 30.0368 25.0476 30.0283L24.7141 29.4505C24.4924 29.0669 23.9997 28.9351 23.6159 29.1565L21.2134 30.5436C20.9801 30.6783 20.8304 30.9193 20.8132 31.1841C20.8017 31.3446 20.8381 31.5033 20.9189 31.6435L21.8186 33.2016C21.2844 33.6518 20.7872 34.1476 20.3354 34.6812L18.7786 33.7824C18.5926 33.6749 18.3759 33.6465 18.1685 33.702C17.9612 33.7576 17.7877 33.8906 17.6803 34.0766L16.293 36.4797C16.2123 36.6196 16.1759 36.7786 16.1872 36.9343C16.2045 37.2036 16.3541 37.4447 16.5874 37.5793L18.1369 38.4738C17.8995 39.1309 17.7177 39.8107 17.5946 40.5016H15.8041C15.3606 40.5016 15 40.8624 15 41.3072V44.0817C15 44.525 15.3606 44.8857 15.8041 44.8857H17.5945C17.7177 45.5771 17.8996 46.2568 18.1368 46.9135L16.5872 47.8082C16.1981 48.033 16.0733 48.5269 16.2931 48.9078L17.6804 51.3107C17.7878 51.4967 17.9612 51.6296 18.1685 51.6853C18.3759 51.7409 18.5926 51.7123 18.7785 51.6049L20.3353 50.7061C20.7872 51.2395 21.2843 51.7355 21.8185 52.1856C20.8416 53.8776 20.7904 53.8865 20.8129 54.1991C20.8303 54.4681 20.98 54.7092 21.2131 54.8438L23.6162 56.2313C23.9999 56.4523 24.4924 56.3205 24.7142 55.9367L25.0476 55.3593C25.0525 55.3509 25.0572 55.3422 25.0616 55.3334L25.6165 54.3721C26.2724 54.6071 26.9498 54.7867 27.638 54.9079V56.7185C27.638 57.1618 27.9986 57.5225 28.4421 57.5225H31.2165C31.6598 57.5225 32.0206 57.1619 32.0206 56.7185V54.8997C32.7065 54.776 33.3814 54.5945 34.034 54.3581L34.7844 55.6579C34.7889 55.6665 34.7935 55.675 34.7983 55.6834L34.9447 55.937C35.1664 56.3203 35.6589 56.4526 36.0428 56.2309L38.4454 54.8438C38.6789 54.709 38.8285 54.4679 38.8455 54.2033C38.857 54.0424 38.8204 53.8835 38.7398 53.744L37.8242 52.1581C38.3527 51.7097 38.8443 51.2169 39.2909 50.6875L40.8803 51.6052C41.264 51.8267 41.7567 51.6947 41.9785 51.3108L43.3656 48.9082C43.4464 48.7685 43.4829 48.6096 43.4716 48.4526C43.4541 48.1839 43.3046 47.9431 43.0714 47.8083L41.4817 46.8905C41.5664 46.6545 41.6437 46.4155 41.7139 46.1742C41.9089 46.2601 41.8122 46.2387 44.2189 46.2387C44.6372 46.2387 44.9778 45.8983 44.9778 45.4798V44.1383C45.4606 44.0461 45.9363 43.9182 46.3985 43.7561L46.9413 44.6963C46.9453 44.7042 46.9496 44.7119 46.9541 44.7196L47.07 44.9204C47.1713 45.0959 47.3349 45.2214 47.5306 45.2739C47.7265 45.3264 47.931 45.2995 48.1066 45.1981L50.0121 44.0979C50.2322 43.9707 50.3734 43.7433 50.3895 43.4941C50.4005 43.3423 50.3659 43.1923 50.2898 43.0603L49.614 41.8899C49.9834 41.57 50.3298 41.2229 50.6485 40.8528L51.8213 41.5299C52.1836 41.7391 52.6488 41.6146 52.8581 41.2521L53.9581 39.3468C54.0344 39.2148 54.0688 39.0648 54.0581 38.9172C54.0416 38.6635 53.9005 38.4362 53.6804 38.309L52.507 37.6316C52.667 37.1713 52.7931 36.6981 52.8838 36.2179H54.241C54.6595 36.2179 54.9999 35.8775 54.9999 35.4579V33.2577C54.9999 32.839 54.6595 32.4986 54.241 32.4986ZM42.1675 48.6394L41.1476 50.406L39.606 49.5159C39.2599 49.3158 38.8271 49.3979 38.5771 49.7105C38.0659 50.3487 37.4833 50.9328 36.8457 51.4463C36.6594 51.5964 36.55 51.8193 36.5454 52.0619C36.5437 52.2056 36.5808 52.3475 36.6528 52.4723L37.5418 54.012L35.7763 55.0314L34.8924 53.5002C34.6924 53.1539 34.2764 53.0085 33.9029 53.1549C33.1416 53.4532 32.3436 53.6679 31.5311 53.7933C31.1358 53.8542 30.8489 54.1879 30.8489 54.5868V56.3503H28.8102V54.5938C28.8102 54.1932 28.5219 53.8593 28.1247 53.7997C27.3101 53.6776 26.5094 53.4655 25.7452 53.1692C25.3728 53.0245 24.9575 53.17 24.758 53.5154L24.0329 54.7714C24.028 54.7799 24.0233 54.7885 24.0188 54.7973L23.8833 55.0319L22.1173 54.0121C23.0744 52.3545 23.102 52.3744 23.0982 52.0835C23.0838 51.3863 22.4561 51.4788 21.048 49.7282C20.7976 49.417 20.3654 49.3354 20.0201 49.5347L18.5113 50.4058L17.4914 48.6392L18.995 47.7712C19.2458 47.6262 19.3992 47.3559 19.3954 47.062C19.3936 46.9671 19.3751 46.874 19.3401 46.7839C19.0408 46.0183 18.826 45.2154 18.7016 44.3972C18.6412 44.0011 18.3074 43.7136 17.9077 43.7136H16.1718V41.6735H17.9078C18.3073 41.6735 18.6412 41.386 18.7016 40.9896C18.8259 40.1716 19.0408 39.3687 19.3405 38.6024C19.3751 38.5135 19.3936 38.4202 19.3955 38.3212C19.3993 38.0312 19.2459 37.7609 18.9947 37.6156L17.4914 36.7479L18.5113 34.9815L20.0199 35.8524C20.365 36.0518 20.7973 35.9707 21.048 35.659C21.5647 35.0165 22.1527 34.4301 22.796 33.9157C22.9831 33.7659 23.0932 33.5429 23.0982 33.2994C23.1001 33.1557 23.0631 33.0137 22.9908 32.8882L22.1173 31.3753L23.8833 30.3555L24.0187 30.5901C24.0232 30.5988 24.0279 30.6075 24.0329 30.616L24.7581 31.8721C24.9574 32.2171 25.3723 32.3626 25.7449 32.2183C26.509 31.922 27.3096 31.7098 28.1247 31.5876C28.5218 31.528 28.8102 31.1942 28.8102 30.7936V29.037H30.8488V30.8006C30.8488 31.1997 31.1359 31.5335 31.531 31.594C32.1702 31.6926 32.8004 31.8465 33.4106 32.0529C33.3921 32.131 33.3414 32.3623 33.3157 32.4986H31.9969C31.5783 32.4986 31.238 32.8392 31.238 33.2586V33.8647C28.0383 33.3521 24.938 34.6075 22.9689 36.9604C18.5444 42.2305 21.5517 50.4479 28.4381 51.5256C28.7577 51.5759 29.0576 51.357 29.1076 51.0373C29.1576 50.7175 28.939 50.4178 28.6193 50.3678C22.5029 49.4112 19.7748 41.8694 24.3483 37.1874C26.1554 35.3886 28.7208 34.5882 31.2381 35.054V35.4587C31.2381 35.8771 31.5785 36.2176 31.997 36.2176H33.3157C33.4077 36.7044 33.5359 37.1839 33.6987 37.6497L32.5574 38.3088C32.1894 38.5214 32.0728 38.9879 32.2798 39.3465L33.3799 41.252C33.4812 41.4275 33.6449 41.5531 33.8407 41.6054C34.0365 41.6579 34.241 41.6309 34.4164 41.5296L35.5636 40.8671C35.8864 41.2405 36.2371 41.5903 36.6109 41.9118C35.9018 43.1401 35.8269 43.1945 35.8479 43.4892C35.8643 43.7429 36.0054 43.9703 36.2257 44.0977L37.3271 44.7337C36.5551 47.5825 34.1823 49.8213 31.1624 50.3477C30.8436 50.4033 30.6302 50.7067 30.6858 51.0256C30.7413 51.3443 31.0447 51.5579 31.3637 51.5023C34.6125 50.9361 37.3452 48.6253 38.3875 45.2894C38.6139 45.326 38.8501 45.2563 39.0213 45.1016C39.137 44.9964 39.1206 45.0006 39.833 43.7666C40.2193 43.9006 40.6671 44.0219 41.0178 44.0965C40.9634 44.186 40.9257 44.2875 40.9089 44.3975C40.7858 45.2074 40.5737 46.0031 40.2784 46.7628C40.2441 46.8514 40.2257 46.9444 40.2238 47.0444C40.2206 47.3339 40.3742 47.6036 40.6247 47.7485L42.1675 48.6394ZM53.8284 35.0456H53.828H52.5343C52.1571 35.0456 51.842 35.3169 51.7849 35.6911C51.6886 36.3244 51.5227 36.9468 51.2917 37.5411C51.2594 37.6243 51.2421 37.7118 51.2402 37.807C51.2372 38.0804 51.3823 38.335 51.6188 38.4715L52.7372 39.1173L52.0497 40.3081L50.932 39.6628C50.6056 39.4744 50.197 39.5517 49.9609 39.8465C48.8476 41.2364 48.3349 41.155 48.3233 41.7852C48.3216 41.9209 48.3565 42.0549 48.4246 42.1732L49.0689 43.2891L47.8791 43.9761L47.2388 42.8672C47.0501 42.5402 46.6573 42.403 46.3048 42.5409C45.7093 42.7742 45.0853 42.9421 44.4496 43.0401C44.0767 43.0978 43.806 43.4128 43.806 43.7892V45.0665H42.4321C42.4321 44.6179 42.4321 44.2355 42.4321 43.7949C42.4321 43.4167 42.1601 43.1016 41.7852 43.0452C40.7774 42.894 40.1029 42.6146 39.8986 42.5434C39.5524 42.4225 39.1754 42.5628 38.9925 42.879C38.4239 43.8639 38.3595 43.9764 38.3595 43.9764C38.1786 43.8721 37.3928 43.4184 37.1691 43.2892C37.8511 42.1079 37.9064 42.076 37.9025 41.8022C37.89 41.1749 37.3704 41.2539 36.25 39.8604C36.0136 39.5667 35.6055 39.4899 35.2797 39.6781L34.1883 40.3082L33.5008 39.1174L34.5873 38.4902C34.907 38.306 35.052 37.9113 34.9142 37.5576C34.68 36.9588 34.512 36.3307 34.4147 35.6908C34.3578 35.3171 34.0426 35.0457 33.6654 35.0457H32.4101C32.4101 34.1957 32.4101 34.4478 32.4101 33.6705H33.6654C34.0427 33.6705 34.3578 33.399 34.4148 33.0251C34.4753 32.6281 34.5703 32.2122 34.6741 31.8608C34.8793 31.1656 34.9618 31.1399 34.9664 30.8926C34.97 30.6186 34.825 30.3633 34.5879 30.2263L33.5009 29.5988L34.1884 28.4081L35.2801 29.0383C35.6059 29.2261 36.0139 29.1494 36.2502 28.8557C36.6543 28.3532 37.1143 27.8944 37.6177 27.4919C37.7943 27.3503 37.8982 27.1397 37.9027 26.9107C37.9046 26.7744 37.8696 26.6399 37.8014 26.5218L37.1693 25.427L38.3596 24.7397L38.405 24.8183C38.409 24.826 38.4132 24.8336 38.4176 24.8412L38.9927 25.8374C39.1809 26.1631 39.5726 26.3004 39.924 26.1644C40.5217 25.9326 41.148 25.7665 41.7855 25.6711C42.1602 25.6147 42.4322 25.2994 42.4322 24.9214V23.6497H43.8061V24.9269C43.8061 25.3033 44.0767 25.6184 44.4499 25.6761C45.0857 25.774 45.7098 25.9419 46.3052 26.1754C46.6574 26.3133 47.0503 26.1759 47.2389 25.849L47.8792 24.7401L49.0691 25.4271C48.3726 26.6334 48.3199 26.6613 48.3235 26.9343C48.3349 27.5587 48.8509 27.4835 49.961 28.8696C50.1972 29.1645 50.6057 29.2419 50.9324 29.0533L52.0499 28.4082L52.7374 29.5989L51.619 30.2447C51.3825 30.3811 51.2374 30.6358 51.2405 30.9152C51.2424 31.0045 51.2597 31.092 51.2921 31.1755C51.523 31.7694 51.6888 32.3918 51.7852 33.0255C51.8422 33.3993 52.1574 33.6707 52.5346 33.6707H53.8283V35.0456H53.8284Z" fill="white"/>
<path d="M47.1153 31.0108C47.5988 31.5848 47.9646 32.2643 48.1788 33.0895C48.2614 33.4679 48.5972 33.6319 48.8942 33.5605C49.2088 33.4848 49.4026 33.1684 49.327 32.8537C49.3132 32.7925 49.3167 32.8048 49.2924 32.7147C48.751 30.6786 47.2292 29.0296 45.2159 28.3305C39.2297 26.2574 34.2812 33.3035 38.0209 38.1814C39.9518 40.7568 43.528 41.517 46.3414 39.8678C46.3415 39.8678 46.3481 39.8639 46.3481 39.8639C47.9054 38.9518 48.9842 37.411 49.327 35.8618C49.4024 35.5471 49.2084 35.2308 48.8937 35.1555C48.5791 35.0802 48.2628 35.2742 48.1873 35.5888C47.1021 39.9597 41.5286 40.9175 38.9554 37.4742C35.0504 32.0674 42.7689 25.8518 47.1153 31.0108Z" fill="white"/>
</svg>
