<svg width="80" height="80" viewBox="0 0 80 80" fill="none" xmlns="http://www.w3.org/2000/svg">
<path d="M40 0L74.641 20L74.641 60L40 80L5.35898 60L5.35898 20L40 0Z" fill="#FB4343"/>
<path d="M58.1359 50.6513H57.6815C57.6656 50.6513 57.6516 50.6403 57.6461 50.6235C57.5557 50.3528 57.4453 50.0858 57.3174 49.8304C57.3091 49.8139 57.311 49.7959 57.3223 49.7846L57.6433 49.4635C57.8716 49.2353 57.9973 48.9316 57.9973 48.6088C57.9973 48.2859 57.8719 47.9825 57.6436 47.7543L56.6771 46.7878C56.4489 46.5595 56.1452 46.4338 55.8223 46.4338C55.4995 46.4338 55.1961 46.5595 54.9679 46.7878L54.6465 47.1088C54.6352 47.1201 54.6175 47.1223 54.601 47.1137C54.3453 46.9862 54.0786 46.8757 53.8076 46.7853C53.7908 46.7795 53.7798 46.7658 53.7798 46.7499V46.2955C53.7798 45.6294 53.2378 45.0871 52.5713 45.0871H52.0696C51.5682 44.7422 51.018 44.4846 50.4306 44.3211L43.3417 42.3451C43.1174 42.2825 42.8797 42.3005 42.6697 42.3887C42.5016 42.1556 42.3951 41.8562 42.3951 41.5785V39.6156C42.7277 39.4011 43.0506 39.1594 43.3628 38.8905C44.7141 37.7269 45.5637 36.046 45.7437 34.2128C46.7334 34.175 47.5268 33.3581 47.5268 32.3592V30.9533C47.5268 30.3286 47.2223 29.7674 46.7313 29.4287L46.8231 29.0869C46.8378 29.0322 46.8442 28.977 46.8429 28.923V26.2716C46.8429 25.9482 46.5808 25.6857 46.257 25.6857C45.9335 25.6857 45.6711 25.9482 45.6711 26.2716V28.1045C43.2071 27.2732 40.6922 26.8524 38.1828 26.8524C35.6733 26.8524 33.1584 27.2732 30.6944 28.1045V25.0473C30.6944 23.721 31.5953 22.5803 32.8856 22.2733L36.9914 21.2958C37.6737 21.1334 38.3961 21.1304 39.0803 21.2873L43.4571 22.291C44.2935 22.4829 44.9924 23.0341 45.3745 23.8031C45.5182 24.093 45.8701 24.2111 46.1597 24.0674C46.4496 23.9233 46.568 23.5718 46.4239 23.2819C45.885 22.197 44.8993 21.4194 43.7192 21.1487L39.3421 20.145C38.4837 19.9482 37.5767 19.9518 36.7201 20.156L32.6143 21.1331C30.7939 21.5665 29.5226 23.176 29.5226 25.0473V28.923C29.522 28.9511 29.5235 28.9797 29.5271 29.0084C29.5271 29.0096 29.5275 29.0112 29.5278 29.0124C29.5281 29.0154 29.5284 29.0182 29.5287 29.0209C29.5293 29.024 29.5299 29.0273 29.5302 29.0304C29.5305 29.0313 29.5305 29.0322 29.5308 29.0331C29.5345 29.0548 29.5394 29.0765 29.5452 29.0972L29.6346 29.4287C29.1432 29.7674 28.8387 30.3289 28.8387 30.9533V32.3592C28.8387 33.3581 29.6321 34.175 30.6218 34.2128C30.8019 36.046 31.6515 37.7269 33.0028 38.8905C33.3153 39.1594 33.6378 39.4011 33.9705 39.6159V41.5785C33.9705 41.8562 33.864 42.1556 33.6958 42.3887C33.4858 42.3005 33.2481 42.2825 33.0238 42.3451L25.935 44.3211C23.8934 44.8899 22.3437 46.6074 21.9869 48.6966L21.6915 50.4273C21.6369 50.7465 21.8514 51.0492 22.1703 51.1035C22.2036 51.1093 22.2369 51.1121 22.2695 51.1121C22.55 51.1121 22.7978 50.9104 22.8466 50.6247L23.142 48.8938C23.4231 47.2495 24.6429 45.8979 26.2496 45.4499L29.6013 44.5161L32.8334 48.2044C32.8401 48.212 32.8468 48.2197 32.8535 48.227C32.8551 48.2288 32.8569 48.231 32.8587 48.2328C32.8645 48.2392 32.8703 48.2456 32.8764 48.252C32.8773 48.2532 32.8782 48.2541 32.8792 48.2554C32.8859 48.2627 32.8929 48.2697 32.8996 48.277C32.9011 48.2786 32.903 48.2804 32.9045 48.2822L32.9219 48.3005C32.9231 48.3018 32.9246 48.303 32.9259 48.3042C32.9326 48.3115 32.9396 48.3185 32.9466 48.3256C32.9481 48.3268 32.9497 48.3283 32.9512 48.3298C32.957 48.3356 32.9628 48.3414 32.9689 48.3472C32.9704 48.3487 32.9719 48.3503 32.9738 48.3518C32.9808 48.3588 32.9878 48.3655 32.9951 48.3722C32.996 48.3735 32.9973 48.3744 32.9982 48.3756C33.0046 48.3811 33.0107 48.3869 33.0168 48.3927C33.0189 48.3945 33.0208 48.3964 33.0229 48.3982C33.0299 48.4049 33.0372 48.4113 33.0443 48.4177C33.0449 48.4183 33.0452 48.4186 33.0458 48.4189C33.0525 48.425 33.0595 48.4311 33.0665 48.4372C33.0687 48.4391 33.0705 48.4409 33.0726 48.4427C33.0794 48.4485 33.0858 48.454 33.0925 48.4598C33.0931 48.4604 33.094 48.4614 33.0949 48.462C33.1022 48.4681 33.1096 48.4745 33.1172 48.4806C33.1193 48.4821 33.1215 48.4839 33.1236 48.4858C33.1297 48.4907 33.1355 48.4955 33.1413 48.5001C33.1431 48.5016 33.145 48.5032 33.1468 48.5047C33.1541 48.5105 33.1614 48.5163 33.1691 48.5221C33.1709 48.5236 33.173 48.5254 33.1752 48.527C33.1807 48.5315 33.1865 48.5358 33.1923 48.5401C33.1947 48.5422 33.1972 48.5438 33.1996 48.5459C33.2069 48.5514 33.2142 48.5569 33.2216 48.5624C33.2237 48.5636 33.2255 48.5651 33.2274 48.5666C33.2335 48.5709 33.2393 48.5752 33.2454 48.5795C33.2478 48.5813 33.2503 48.5831 33.2527 48.585C33.2603 48.5901 33.268 48.5956 33.2756 48.6011C33.2768 48.602 33.278 48.603 33.2795 48.6039C33.286 48.6081 33.2927 48.6127 33.2991 48.6173C33.3018 48.6191 33.3046 48.621 33.3073 48.6228C33.3134 48.6268 33.3192 48.6307 33.3253 48.6347C33.3275 48.6362 33.3296 48.6377 33.3317 48.6393C33.3391 48.6438 33.3464 48.6487 33.3534 48.6533C33.3568 48.6554 33.3598 48.6573 33.3629 48.6594C33.3684 48.6628 33.3735 48.6658 33.3787 48.6692C33.3815 48.671 33.3845 48.6728 33.3873 48.6747C33.3946 48.6792 33.4019 48.6835 33.4096 48.6881C33.4126 48.6899 33.4157 48.6918 33.4187 48.6936C33.4239 48.6966 33.4291 48.6997 33.4343 48.7027C33.4373 48.7049 33.4407 48.7067 33.444 48.7085C33.4514 48.7128 33.4584 48.7171 33.4657 48.7211C33.4694 48.7232 33.4727 48.725 33.4761 48.7272C33.481 48.7296 33.4855 48.7323 33.4904 48.7351C33.4941 48.7372 33.4981 48.7391 33.5017 48.7412C33.5072 48.7443 33.5127 48.7473 33.5185 48.7504C33.5234 48.7531 33.5283 48.7555 33.5331 48.7583C33.538 48.7607 33.5432 48.7635 33.5481 48.7659C33.5521 48.7681 33.556 48.7702 33.5603 48.7723C33.5643 48.7745 33.5685 48.7766 33.5728 48.7787C33.5795 48.7821 33.5862 48.7854 33.593 48.7888C33.5972 48.7909 33.6015 48.7931 33.6058 48.7952C33.6104 48.7974 33.6149 48.7995 33.6192 48.8016C33.6232 48.8035 33.6271 48.8053 33.6314 48.8071C33.6372 48.8102 33.6433 48.8129 33.6494 48.8157C33.6546 48.8181 33.6598 48.8205 33.6653 48.823C33.6702 48.8251 33.6751 48.8276 33.6799 48.8297C33.683 48.8309 33.686 48.8324 33.6891 48.8337C33.6943 48.8361 33.6995 48.8382 33.7047 48.8407C33.7065 48.8413 33.7083 48.8419 33.7101 48.8428C33.7202 48.8471 33.7303 48.8514 33.7407 48.8556C33.7437 48.8569 33.7468 48.8581 33.7498 48.8593C33.755 48.8614 33.7599 48.8636 33.7651 48.8657C33.7684 48.8669 33.7718 48.8682 33.7748 48.8697C33.784 48.8733 33.7932 48.8767 33.8023 48.8804C33.8051 48.8813 33.8075 48.8822 33.8102 48.8834C33.8157 48.8852 33.8215 48.8874 33.827 48.8895C33.8292 48.8904 33.8313 48.891 33.8334 48.892C33.8447 48.8962 33.8563 48.9002 33.8676 48.9042C33.8688 48.9045 33.8701 48.9051 33.8713 48.9054C33.8774 48.9075 33.8832 48.9097 33.8893 48.9115C33.8914 48.9124 33.8936 48.913 33.8957 48.9139C33.9146 48.92 33.9335 48.9261 33.9528 48.9322C33.9543 48.9328 33.9561 48.9332 33.9576 48.9338C33.9772 48.9396 33.9964 48.9454 34.0159 48.9509C34.0178 48.9512 34.0193 48.9518 34.0211 48.9521C34.041 48.9579 34.0611 48.9631 34.0812 48.9679C34.0822 48.9682 34.0834 48.9686 34.0843 48.9689C34.091 48.9704 34.0977 48.9722 34.1041 48.9737C34.105 48.974 34.106 48.974 34.1069 48.9744C34.1203 48.9774 34.1337 48.9805 34.1472 48.9835C34.1478 48.9835 34.1481 48.9838 34.1484 48.9838C34.1554 48.9853 34.1621 48.9866 34.1688 48.9881C34.1697 48.9884 34.1707 48.9884 34.1719 48.9887C34.1923 48.993 34.2128 48.9969 34.2335 49.0006C34.2347 49.0009 34.2363 49.0012 34.2378 49.0015C34.2582 49.0052 34.2784 49.0085 34.2988 49.0116C34.3004 49.0119 34.3016 49.0122 34.3028 49.0122C34.3235 49.0155 34.3446 49.0183 34.3654 49.021C34.3663 49.021 34.3672 49.0213 34.3681 49.0213C34.3751 49.0223 34.3818 49.0232 34.3889 49.0238C34.3895 49.0238 34.3898 49.0238 34.3901 49.0241C34.4044 49.0256 34.4185 49.0271 34.4328 49.0284C34.4331 49.0284 34.4334 49.0287 34.4337 49.0287C34.4407 49.0293 34.4481 49.0299 34.4551 49.0305C34.4557 49.0305 34.4563 49.0308 34.4572 49.0308C34.4783 49.0326 34.4996 49.0342 34.5207 49.0354C34.5222 49.0354 34.5234 49.0357 34.5247 49.0357C34.5451 49.0369 34.5655 49.0378 34.586 49.0384C34.5881 49.0387 34.5903 49.0387 34.5921 49.0387C34.6119 49.0394 34.6321 49.04 34.6519 49.04H34.6589C34.6623 49.04 34.6659 49.0403 34.6696 49.0403C34.7398 49.0403 34.8103 49.0372 34.8805 49.0308H34.8808C34.8957 49.0296 34.9107 49.0281 34.9257 49.0265C34.9699 49.022 35.0138 49.0162 35.0578 49.0091C35.059 49.0088 35.0602 49.0085 35.0615 49.0085C35.0676 49.0073 35.0737 49.0064 35.0798 49.0055C35.0813 49.0052 35.0831 49.0049 35.0846 49.0046C35.0904 49.0036 35.0965 49.0024 35.1023 49.0015C35.1042 49.0012 35.106 49.0006 35.1081 49.0003C35.1136 48.9994 35.1191 48.9985 35.1246 48.9972C35.1271 48.9969 35.1295 48.9963 35.1323 48.996C35.1371 48.9948 35.1423 48.9939 35.1475 48.993C35.1503 48.9924 35.1527 48.9917 35.1554 48.9914C35.1606 48.9902 35.1658 48.9893 35.171 48.9881C35.1735 48.9878 35.1759 48.9872 35.1783 48.9866C35.1838 48.9853 35.189 48.9844 35.1945 48.9832C35.196 48.9826 35.1979 48.9823 35.1994 48.982C35.2174 48.978 35.2354 48.9737 35.2534 48.9692C35.2565 48.9686 35.2598 48.9676 35.2629 48.967C35.2671 48.9658 35.2714 48.9649 35.2757 48.9637C35.2793 48.9628 35.283 48.9618 35.2867 48.9609C35.2906 48.9597 35.2949 48.9588 35.2989 48.9576C35.3025 48.9567 35.3062 48.9557 35.3099 48.9548C35.3141 48.9536 35.3181 48.9524 35.3221 48.9515C35.326 48.9502 35.33 48.949 35.334 48.9481C35.3376 48.9469 35.3416 48.946 35.3456 48.9447C35.3492 48.9435 35.3532 48.9426 35.3572 48.9414C35.3608 48.9402 35.3648 48.9393 35.3688 48.938C35.373 48.9368 35.3773 48.9353 35.3816 48.9341C35.3849 48.9332 35.3883 48.9319 35.3916 48.931C35.3962 48.9295 35.4008 48.9283 35.4051 48.9267C35.4084 48.9258 35.4118 48.9246 35.4151 48.9237C35.42 48.9222 35.4252 48.9203 35.4301 48.9188C35.4328 48.9179 35.4356 48.917 35.4383 48.9161C35.4463 48.9136 35.4539 48.9109 35.4618 48.9081L38.1831 47.9813L40.904 48.9081C40.9119 48.9109 40.9198 48.9136 40.9278 48.9161C40.9299 48.917 40.9321 48.9176 40.9345 48.9182C40.9397 48.92 40.9452 48.9219 40.9507 48.9237C40.9537 48.9246 40.9568 48.9255 40.9598 48.9264L40.9745 48.931C40.9775 48.9319 40.9806 48.9328 40.9839 48.9338C40.9885 48.9353 40.9931 48.9365 40.9977 48.938C41.001 48.939 41.0047 48.9402 41.008 48.9411C41.0123 48.9423 41.0163 48.9435 41.0206 48.9447C41.0245 48.9457 41.0282 48.9469 41.0318 48.9478C41.0358 48.949 41.0398 48.9499 41.0438 48.9512C41.0477 48.9524 41.0517 48.9533 41.056 48.9545C41.0596 48.9554 41.0633 48.9563 41.0669 48.9576C41.0709 48.9585 41.0749 48.9597 41.0792 48.9606C41.0831 48.9618 41.0871 48.9628 41.0911 48.9637C41.095 48.9649 41.099 48.9658 41.1026 48.9667C41.1057 48.9676 41.1084 48.9682 41.1115 48.9689C41.1295 48.9734 41.1478 48.9777 41.1661 48.9817C41.1677 48.982 41.1695 48.9823 41.1713 48.9829C41.1765 48.9841 41.182 48.985 41.1872 48.9863C41.1899 48.9869 41.1924 48.9875 41.1948 48.9878C41.1997 48.989 41.2043 48.9899 41.2092 48.9908C41.2122 48.9914 41.2156 48.9921 41.2189 48.9927C41.2232 48.9936 41.2278 48.9945 41.232 48.9954C41.2357 48.996 41.2391 48.9966 41.2424 48.9972C41.2467 48.9982 41.2513 48.9991 41.2555 48.9997C41.2589 49.0003 41.2626 49.0009 41.2659 49.0015C41.2702 49.0024 41.2748 49.0033 41.2793 49.004C41.2824 49.0046 41.2854 49.0052 41.2885 49.0055C41.2934 49.0064 41.2983 49.0073 41.3028 49.0079C41.3059 49.0085 41.3086 49.0088 41.3117 49.0094C41.3166 49.0101 41.3215 49.011 41.3266 49.0116C41.3285 49.0119 41.3306 49.0122 41.3324 49.0125C41.3511 49.0152 41.37 49.018 41.3886 49.0204C41.3907 49.0207 41.3932 49.021 41.3953 49.021C41.4002 49.0217 41.4054 49.0223 41.41 49.0229C41.413 49.0232 41.4161 49.0238 41.4191 49.0241C41.4237 49.0244 41.4283 49.025 41.4328 49.0256C41.4362 49.0259 41.4396 49.0262 41.4426 49.0265C41.4472 49.0271 41.4515 49.0275 41.456 49.0281C41.4597 49.0284 41.4631 49.0287 41.4664 49.029C41.4707 49.0293 41.475 49.0299 41.4795 49.0302L41.4905 49.0311C41.4945 49.0314 41.4988 49.0317 41.503 49.032C41.5067 49.0323 41.5104 49.0326 41.514 49.0329C41.5183 49.0332 41.5226 49.0336 41.5268 49.0339C41.5305 49.0342 41.5339 49.0345 41.5372 49.0345C41.5418 49.0348 41.5458 49.0351 41.55 49.0354C41.5546 49.0357 41.5589 49.036 41.5632 49.036C41.5665 49.0363 41.5699 49.0366 41.5735 49.0366C41.5793 49.0369 41.5854 49.0372 41.5915 49.0375C41.594 49.0375 41.5961 49.0378 41.5982 49.0378C41.6056 49.0381 41.6132 49.0384 41.6205 49.0384C41.6233 49.0387 41.626 49.0387 41.6288 49.0387C41.634 49.039 41.6391 49.039 41.6443 49.0394H41.6535C41.6584 49.0394 41.6632 49.0397 41.6681 49.0397H41.6776H41.6922H41.6962H41.6999H41.7261H41.7292C41.7389 49.0394 41.7487 49.0394 41.7585 49.039C41.7606 49.0387 41.7627 49.0387 41.7646 49.0387C41.7734 49.0384 41.782 49.0381 41.7905 49.0378H41.7942C41.8042 49.0375 41.814 49.0369 41.8241 49.0363H41.8284C41.8372 49.0357 41.846 49.0351 41.8549 49.0345C41.8564 49.0345 41.858 49.0345 41.8595 49.0342C41.8796 49.0329 41.8998 49.0314 41.9199 49.0296C41.9211 49.0293 41.9226 49.0293 41.9239 49.029C41.944 49.0271 41.9642 49.025 41.9843 49.0226C41.9855 49.0226 41.9867 49.0223 41.988 49.0223C42.0081 49.0198 42.0282 49.0171 42.0484 49.014C42.0496 49.014 42.0505 49.0137 42.0517 49.0137C42.0612 49.0122 42.071 49.0107 42.0804 49.0091H42.0819C42.0923 49.0073 42.1027 49.0055 42.1131 49.004L42.1134 49.0036C42.1231 49.0021 42.1332 49.0003 42.143 48.9985C42.1439 48.9982 42.1448 48.9982 42.1457 48.9979C42.1659 48.9939 42.186 48.9899 42.2062 48.9856C42.2071 48.9853 42.208 48.9853 42.2089 48.985C42.229 48.9808 42.2489 48.9762 42.2684 48.9713C42.2696 48.971 42.2708 48.9707 42.2721 48.9704C42.2919 48.9658 42.3117 48.9606 42.3316 48.9554C42.3322 48.9551 42.3331 48.9548 42.334 48.9545C42.3435 48.9521 42.3529 48.9493 42.3624 48.9466C42.3627 48.9466 42.3633 48.9463 42.3639 48.9463C42.3737 48.9435 42.3838 48.9405 42.3935 48.9377C42.3941 48.9374 42.3947 48.9371 42.3957 48.9371C42.4048 48.9341 42.4143 48.9313 42.4234 48.9286C42.4244 48.9283 42.425 48.928 42.4259 48.9277C42.4454 48.9216 42.4649 48.9151 42.4845 48.9084C42.4854 48.9081 42.4863 48.9078 42.4869 48.9075C42.5061 48.9011 42.5254 48.8941 42.5443 48.8871C42.5458 48.8865 42.5473 48.8862 42.5489 48.8855C42.5675 48.8785 42.5861 48.8712 42.6047 48.8639C42.6062 48.8633 42.6075 48.8627 42.6087 48.862C42.6172 48.8587 42.6258 48.8553 42.6343 48.8517C42.6352 48.8514 42.6361 48.8511 42.6368 48.8505C42.6462 48.8465 42.6554 48.8425 42.6648 48.8385C42.6657 48.8382 42.6667 48.8379 42.6676 48.8373C42.6758 48.8337 42.6841 48.8303 42.6923 48.8266C42.6938 48.8257 42.6953 48.8251 42.6969 48.8245C42.7057 48.8205 42.7149 48.8163 42.7237 48.812C42.7246 48.8117 42.7253 48.8114 42.7262 48.8108C42.7344 48.8071 42.7423 48.8035 42.7503 48.7995C42.7524 48.7986 42.7542 48.7977 42.7561 48.7967C42.7735 48.7885 42.7909 48.7797 42.8083 48.7708C42.8101 48.7696 42.8122 48.7687 42.8147 48.7674C42.8226 48.7632 42.8308 48.7592 42.8388 48.7546C42.8394 48.7546 42.8397 48.7543 42.8403 48.754C42.8488 48.7494 42.8574 48.7449 42.8659 48.7403C42.8678 48.7391 42.8699 48.7378 42.872 48.7366C42.8794 48.7327 42.8864 48.7287 42.8937 48.7247C42.8949 48.7238 42.8965 48.7232 42.8977 48.7223C42.9059 48.7177 42.9142 48.7128 42.9224 48.7082C42.9248 48.707 42.927 48.7055 42.9291 48.7043C42.9355 48.7006 42.9419 48.6966 42.9483 48.693C42.9508 48.6915 42.9529 48.6902 42.955 48.689C42.963 48.6841 42.9709 48.6792 42.9788 48.6744C42.9807 48.6731 42.9828 48.6719 42.9846 48.6707C42.9911 48.6667 42.9975 48.6628 43.0036 48.6588C43.006 48.6573 43.0085 48.6558 43.0109 48.6542C43.0188 48.649 43.0268 48.6438 43.0344 48.639C43.0356 48.6381 43.0368 48.6374 43.0377 48.6365C43.0451 48.6319 43.0521 48.6274 43.0591 48.6225C43.0612 48.621 43.0634 48.6197 43.0655 48.6182C43.0728 48.6133 43.0799 48.6081 43.0872 48.6033C43.0881 48.6027 43.0887 48.602 43.0896 48.6014C43.0973 48.5962 43.1049 48.5907 43.1125 48.5853C43.115 48.5834 43.1177 48.5816 43.1201 48.5798C43.1259 48.5755 43.1317 48.5715 43.1372 48.5673C43.1397 48.5657 43.1418 48.5639 43.1439 48.5624C43.1513 48.5569 43.1586 48.5517 43.1656 48.5462C43.1681 48.5444 43.1708 48.5422 43.1732 48.5404C43.1787 48.5361 43.1842 48.5319 43.1897 48.5276C43.1922 48.5257 43.1943 48.5239 43.1964 48.5224C43.2038 48.5166 43.2111 48.5108 43.2181 48.5053C43.2205 48.5032 43.2227 48.5013 43.2251 48.4995C43.2303 48.4952 43.2355 48.491 43.2407 48.487C43.2434 48.4845 43.2459 48.4824 43.2486 48.4803C43.2556 48.4745 43.2627 48.4687 43.2697 48.4626C43.2715 48.4614 43.273 48.4598 43.2749 48.4583C43.2807 48.4534 43.2862 48.4485 43.2917 48.4437C43.2944 48.4415 43.2968 48.4394 43.2996 48.4372C43.3054 48.4318 43.3115 48.4266 43.3176 48.4211C43.3194 48.4195 43.3209 48.418 43.3228 48.4165C43.3292 48.4107 43.3356 48.4049 43.3417 48.3991C43.3441 48.397 43.3466 48.3948 43.349 48.3924C43.3548 48.3872 43.3603 48.382 43.3658 48.3768C43.3673 48.3753 43.3689 48.3741 43.3707 48.3726C43.3774 48.3661 43.3841 48.3597 43.3905 48.3533C43.3933 48.3509 43.3957 48.3484 43.3982 48.346C43.403 48.3414 43.4076 48.3365 43.4122 48.332C43.4146 48.3298 43.4171 48.3274 43.4192 48.3249C43.4259 48.3185 43.4323 48.3118 43.4391 48.3051L43.4445 48.2996C43.4497 48.2944 43.4546 48.2889 43.4598 48.2837C43.4619 48.2816 43.4641 48.2792 43.4665 48.2767C43.4729 48.2697 43.4796 48.263 43.486 48.256C43.487 48.2548 43.4882 48.2535 43.4891 48.2523C43.4949 48.2462 43.5007 48.2398 43.5062 48.2337C43.5083 48.2316 43.5102 48.2294 43.512 48.2273C43.5187 48.22 43.5251 48.2126 43.5318 48.205L46.7639 44.5164L50.1156 45.4505C50.1751 45.467 50.234 45.485 50.2923 45.5039C50.1077 45.716 49.9957 45.9934 49.9957 46.2962V46.7506C49.9957 46.7664 49.9847 46.7802 49.9679 46.786C49.6969 46.876 49.4302 46.9865 49.1745 47.1143C49.1583 47.1226 49.1403 47.1207 49.129 47.1094L48.8076 46.7884C48.3365 46.3172 47.5699 46.3172 47.0987 46.7884L46.1322 47.7549C45.661 48.2261 45.661 48.993 46.1322 49.4638L46.4532 49.7852C46.4645 49.7965 46.4667 49.8145 46.4581 49.831C46.3306 50.0861 46.2201 50.3531 46.1298 50.6241C46.1243 50.6412 46.1102 50.6519 46.0944 50.6519H45.64C44.9738 50.6519 44.4315 51.1942 44.4315 51.8604V53.2272C44.4315 53.8937 44.9738 54.4357 45.64 54.4357H46.0944C46.1102 54.4357 46.1243 54.4467 46.1298 54.4638C46.2201 54.7354 46.3309 55.0024 46.4581 55.2569C46.4664 55.2734 46.4645 55.2914 46.4532 55.3027L46.1319 55.6241C45.661 56.0952 45.661 56.8618 46.1319 57.333L46.4127 57.6135H22.5784C22.3477 57.6135 22.1304 57.5125 21.9814 57.3364C21.8328 57.16 21.77 56.9287 21.8087 56.7013L22.3785 53.3655C22.4331 53.0466 22.2186 52.7438 21.8997 52.6892C21.5808 52.6349 21.2777 52.8491 21.2234 53.168L20.6536 56.5042C20.5563 57.0724 20.7141 57.6513 21.0858 58.092C21.4578 58.5327 22.0016 58.7853 22.5784 58.7853H49.996V58.7915C49.996 59.458 50.5383 59.9999 51.2045 59.9999H52.5713C53.2378 59.9999 53.7798 59.458 53.7798 58.7915V58.3371C53.7798 58.3212 53.7908 58.3074 53.8076 58.3017C54.0789 58.2113 54.3459 58.1008 54.601 57.9733C54.6178 57.9647 54.6355 57.9669 54.6468 57.9782L54.9679 58.2992C55.1961 58.5275 55.4995 58.6532 55.8223 58.6532C56.1452 58.6532 56.4486 58.5275 56.6771 58.2992L57.6433 57.3327C57.8716 57.1045 57.9973 56.8011 57.9973 56.4782C57.9973 56.1554 57.8719 55.852 57.6436 55.6238L57.3223 55.3024C57.311 55.2911 57.3091 55.2734 57.3174 55.2569C57.4453 55.0012 57.5557 54.7345 57.6458 54.4635C57.6516 54.4467 57.6656 54.4357 57.6815 54.4357H58.1359C58.8021 54.4357 59.3443 53.8934 59.3443 53.2272V51.8598C59.3443 51.1936 58.8021 50.6513 58.1359 50.6513ZM38.1828 28.0242C40.6507 28.0242 43.1269 28.4539 45.5515 29.3023L45.4126 29.8187C45.361 30.0106 45.2368 30.1693 45.0626 30.2654C44.8911 30.3603 44.6936 30.3811 44.5072 30.3237C40.351 29.0472 36.1366 29.0347 31.9792 30.2871C31.9389 30.2993 31.8986 30.3115 31.8581 30.324C31.6719 30.3811 31.4745 30.3603 31.3026 30.2654C31.2648 30.2444 31.2291 30.2203 31.1961 30.1937C31.1867 30.1861 31.1772 30.1782 31.1684 30.1702C31.1592 30.162 31.1504 30.1537 31.1418 30.1452C31.0518 30.0561 30.9868 29.9447 30.9529 29.8187L30.9349 29.7515L30.8907 29.587C30.8904 29.5864 30.8904 29.5858 30.89 29.5852L30.8141 29.3023C33.2387 28.4539 35.7148 28.0242 38.1828 28.0242ZM33.7672 38.0025C32.5282 36.9353 31.7961 35.3365 31.7592 33.6156C31.7525 33.2973 31.4922 33.0425 31.1736 33.0425H30.6935C30.3169 33.0425 30.0105 32.7361 30.0105 32.3595V30.9533C30.0105 30.8566 30.0316 30.7626 30.0697 30.6774C30.071 30.6792 30.0722 30.6811 30.0734 30.6832C30.0755 30.6863 30.0777 30.6896 30.0801 30.6927C30.0826 30.6966 30.085 30.7006 30.0877 30.7043C30.0905 30.7079 30.0929 30.7119 30.0957 30.7156C30.0987 30.7201 30.1018 30.7244 30.1048 30.729C30.1088 30.7342 30.1128 30.7397 30.1167 30.7452C30.1189 30.7485 30.1213 30.7519 30.1238 30.7549C30.1265 30.7589 30.1293 30.7626 30.132 30.7662C30.1344 30.7696 30.1372 30.7729 30.1396 30.7763C30.1424 30.78 30.1451 30.7836 30.1482 30.7873C30.1506 30.7906 30.1531 30.7937 30.1555 30.797C30.1585 30.8007 30.1613 30.8047 30.1643 30.8083C30.1668 30.8114 30.1692 30.8144 30.1717 30.8178C30.175 30.8218 30.1784 30.826 30.1817 30.83C30.1842 30.8331 30.1866 30.8361 30.1891 30.8389C30.1939 30.845 30.1988 30.8508 30.204 30.8569C30.2065 30.8596 30.2086 30.8624 30.211 30.8651C30.2144 30.8691 30.2178 30.873 30.2211 30.8767C30.2239 30.8797 30.2263 30.8828 30.229 30.8858C30.2321 30.8892 30.2351 30.8926 30.2382 30.8959C30.2409 30.8993 30.244 30.9023 30.2467 30.9057C30.2498 30.909 30.2532 30.9124 30.2562 30.9161C30.259 30.9188 30.2614 30.9219 30.2641 30.9246C30.2684 30.9292 30.2724 30.9335 30.2766 30.9377C30.2785 30.9396 30.2803 30.9417 30.2821 30.9435C30.2879 30.9493 30.2934 30.9554 30.2992 30.9612C30.3023 30.9643 30.3053 30.9673 30.3084 30.9704C30.3114 30.9734 30.3145 30.9765 30.3178 30.9795C30.3209 30.9829 30.3243 30.9859 30.3273 30.989C30.3304 30.9917 30.3334 30.9948 30.3365 30.9978C30.3398 31.0009 30.3429 31.004 30.3462 31.007C30.3493 31.0101 30.3526 31.0131 30.3557 31.0159C30.3587 31.0189 30.3621 31.022 30.3651 31.0247C30.3685 31.0281 30.3722 31.0311 30.3758 31.0345C30.3816 31.0397 30.3874 31.0451 30.3935 31.0503C30.3966 31.0531 30.3996 31.0555 30.4024 31.0583C30.4063 31.0616 30.41 31.0647 30.4137 31.068C30.4167 31.0702 30.4195 31.0729 30.4222 31.0754C30.4259 31.0784 30.4295 31.0815 30.4332 31.0845C30.4363 31.087 30.4396 31.0894 30.4427 31.0921C30.4463 31.0952 30.45 31.0983 30.4536 31.1013C30.4564 31.1034 30.4594 31.1059 30.4622 31.1083C30.4662 31.1114 30.4701 31.1144 30.4744 31.1178C30.4768 31.1199 30.4796 31.1217 30.4823 31.1239C30.4903 31.1303 30.4982 31.1364 30.5061 31.1422C30.5086 31.144 30.511 31.1462 30.5135 31.148C30.5177 31.151 30.522 31.1541 30.5263 31.1575C30.529 31.1593 30.5318 31.1614 30.5345 31.1633C30.5388 31.1666 30.5431 31.1697 30.5473 31.1727C30.5501 31.1748 30.5528 31.1767 30.5556 31.1785C30.5602 31.1819 30.5644 31.1849 30.569 31.188C30.5714 31.1895 30.5739 31.1913 30.5763 31.1932C30.5812 31.1962 30.5861 31.1996 30.5907 31.2029C30.5922 31.2038 30.5937 31.2048 30.5949 31.2057C30.6072 31.2136 30.6191 31.2215 30.6313 31.2292C30.6313 31.2295 30.6313 31.2295 30.6316 31.2295C30.6368 31.2328 30.6419 31.2362 30.6471 31.2395C30.6496 31.2408 30.6517 31.2423 30.6538 31.2435C30.659 31.2469 30.6639 31.2499 30.6691 31.253C30.6712 31.2542 30.6737 31.2554 30.6758 31.2569C30.681 31.26 30.6865 31.2633 30.6917 31.2664C30.6935 31.2673 30.6953 31.2685 30.6972 31.2695C30.71 31.2771 30.7225 31.2844 30.7356 31.2914C30.7445 31.2963 30.7533 31.3012 30.7622 31.3058C30.7622 31.3061 30.7625 31.3061 30.7625 31.3061C30.771 31.3107 30.7796 31.3152 30.7881 31.3195C30.7887 31.3198 30.7896 31.3201 30.7903 31.3204C30.7985 31.325 30.807 31.3293 30.8159 31.3332C30.8159 31.3335 30.8162 31.3335 30.8165 31.3338C30.8342 31.3424 30.8522 31.3509 30.8699 31.3592C30.8708 31.3595 30.8717 31.3598 30.8727 31.3604C30.8803 31.3638 30.8882 31.3674 30.8958 31.3708C30.8974 31.3714 30.8989 31.372 30.9004 31.3726C30.9081 31.376 30.9157 31.3793 30.9236 31.3824C30.9245 31.383 30.9258 31.3836 30.927 31.3839C30.9441 31.3912 30.9618 31.3982 30.9792 31.4049C30.9813 31.4059 30.9837 31.4065 30.9859 31.4074C30.9923 31.4098 30.999 31.4123 31.0054 31.4147C31.0078 31.4156 31.0103 31.4165 31.0127 31.4175C31.0194 31.4196 31.0258 31.422 31.0326 31.4245C31.0347 31.4251 31.0371 31.426 31.0393 31.4266C31.0478 31.4297 31.0564 31.4324 31.0649 31.4355C31.0667 31.4361 31.0689 31.4367 31.071 31.4373C31.0774 31.4394 31.0838 31.4413 31.0902 31.4434C31.0936 31.4446 31.097 31.4455 31.1003 31.4468C31.1058 31.4483 31.1113 31.4498 31.1165 31.4516C31.1198 31.4526 31.1235 31.4535 31.1269 31.4544C31.1327 31.4562 31.1385 31.458 31.1446 31.4596C31.1473 31.4602 31.1501 31.4611 31.1528 31.462C31.161 31.4642 31.1696 31.4663 31.1778 31.4687C31.1812 31.4693 31.1842 31.4703 31.1873 31.4712C31.1928 31.4724 31.198 31.4736 31.2035 31.4751C31.2074 31.4761 31.2114 31.477 31.2154 31.4779L31.23 31.4815C31.234 31.4825 31.2379 31.4831 31.2419 31.4843C31.2465 31.4852 31.2514 31.4861 31.2559 31.4873C31.2602 31.4883 31.2642 31.4892 31.2682 31.4898C31.2761 31.4916 31.284 31.4931 31.292 31.4947C31.2962 31.4953 31.3002 31.4962 31.3045 31.4971C31.309 31.4977 31.3136 31.4986 31.3182 31.4996C31.3225 31.5005 31.3271 31.5011 31.3316 31.502C31.3359 31.5026 31.3402 31.5035 31.3444 31.5041C31.349 31.5047 31.3533 31.5054 31.3576 31.5063C31.3625 31.5069 31.367 31.5078 31.3719 31.5084C31.3777 31.5093 31.3838 31.5102 31.3896 31.5108C31.3957 31.5118 31.4015 31.5127 31.4076 31.5133C31.4122 31.5139 31.4168 31.5145 31.4217 31.5151C31.4256 31.5154 31.4299 31.516 31.4339 31.5166C31.4387 31.5173 31.4436 31.5176 31.4485 31.5182C31.4522 31.5185 31.4558 31.5191 31.4598 31.5194C31.4647 31.52 31.4699 31.5203 31.4748 31.5209C31.4784 31.5212 31.4824 31.5215 31.4864 31.5218C31.4955 31.5227 31.5047 31.5234 31.5138 31.524C31.5172 31.5243 31.5205 31.5246 31.5242 31.5249C31.5291 31.5252 31.5343 31.5255 31.5391 31.5258C31.5431 31.5258 31.5468 31.5261 31.5504 31.5264C31.5556 31.5267 31.5608 31.5267 31.5657 31.527C31.5694 31.5273 31.5727 31.5273 31.5764 31.5273C31.5816 31.5276 31.5868 31.5279 31.5919 31.5279C31.5956 31.5279 31.5993 31.5282 31.6029 31.5282C31.6124 31.5285 31.6222 31.5285 31.6316 31.5285C31.635 31.5285 31.638 31.5288 31.6414 31.5288H31.646C31.7067 31.5288 31.7674 31.5258 31.8281 31.5197H31.8285C31.8513 31.5176 31.8745 31.5148 31.8977 31.5118C31.8983 31.5115 31.8993 31.5115 31.8999 31.5115C31.9072 31.5102 31.9148 31.5093 31.9221 31.5081C31.9298 31.5069 31.9374 31.5057 31.9453 31.5044H31.9462C31.9533 31.5032 31.9603 31.502 31.9676 31.5008C31.9685 31.5008 31.9694 31.5005 31.9704 31.5005C31.9774 31.4989 31.9847 31.4977 31.9917 31.4965C31.992 31.4962 31.9923 31.4962 31.9926 31.4962C32 31.495 32.0073 31.4934 32.0149 31.4919C32.0158 31.4916 32.0167 31.4916 32.0177 31.4913C32.0241 31.4901 32.0305 31.4886 32.0369 31.4873C32.0381 31.487 32.0396 31.4867 32.0409 31.4864C32.0555 31.4834 32.0698 31.48 32.0845 31.4767C32.0857 31.4764 32.0869 31.4761 32.0882 31.4757C32.094 31.4742 32.1001 31.4727 32.1062 31.4712C32.1077 31.4709 32.1092 31.4706 32.111 31.47C32.1251 31.4663 32.1394 31.4626 32.1538 31.4587C32.1553 31.458 32.1571 31.4574 32.159 31.4571C32.1641 31.4556 32.1696 31.4541 32.1751 31.4526C32.177 31.4519 32.1791 31.4513 32.1809 31.4507C32.1879 31.4489 32.195 31.4468 32.202 31.4443C35.5967 30.4015 39.0324 30.2511 42.4387 30.9924C42.5037 31.0064 42.569 31.021 42.634 31.0357C42.6648 31.0427 42.6957 31.0497 42.7265 31.0571C42.7759 31.0686 42.8257 31.0802 42.8751 31.0921C42.9319 31.1056 42.9886 31.1196 43.0454 31.1336C43.0823 31.1428 43.1195 31.1523 43.1568 31.1617C43.2187 31.1776 43.2807 31.1938 43.3426 31.2099C43.4763 31.2453 43.6099 31.2823 43.7436 31.3201C43.8834 31.3601 44.0232 31.4016 44.1626 31.4443C44.6555 31.596 45.1764 31.5417 45.629 31.2914C45.6369 31.2872 45.6448 31.2826 45.6525 31.2783C45.6552 31.2768 45.6577 31.2753 45.6604 31.2737C45.6656 31.2707 45.6711 31.2676 45.6763 31.2643C45.679 31.2627 45.6818 31.2612 45.6845 31.2594C45.6897 31.2566 45.6946 31.2536 45.6998 31.2505C45.7025 31.2487 45.7053 31.2469 45.7083 31.245C45.7135 31.242 45.719 31.2386 45.7242 31.2353C45.7266 31.2337 45.7288 31.2322 45.7309 31.231C45.7462 31.2212 45.7614 31.2115 45.7764 31.2014C45.7782 31.1999 45.7803 31.1987 45.7825 31.1971C45.7877 31.1935 45.7932 31.1898 45.7983 31.1861C45.8008 31.1843 45.8032 31.1828 45.8057 31.181C45.8109 31.1773 45.8157 31.1739 45.8209 31.1703C45.8234 31.1684 45.8255 31.1669 45.8279 31.1651C45.8331 31.1614 45.8383 31.1575 45.8435 31.1538C45.8456 31.1523 45.8478 31.1507 45.8499 31.1492C45.8569 31.1437 45.8643 31.1385 45.8713 31.133C45.8716 31.1327 45.8719 31.1324 45.8719 31.1324C45.8789 31.1269 45.8856 31.1217 45.8923 31.1166C45.8942 31.115 45.8963 31.1132 45.8981 31.1117C45.9033 31.1077 45.9082 31.1037 45.9131 31.0998C45.9155 31.0979 45.9177 31.0958 45.9201 31.094C45.9247 31.0903 45.9293 31.0863 45.9338 31.0824C45.9363 31.0806 45.9387 31.0787 45.9409 31.0766C45.9457 31.0726 45.9503 31.0686 45.9549 31.0647C45.957 31.0628 45.9592 31.061 45.9613 31.0592C45.9747 31.0476 45.9879 31.0357 46.0007 31.0238C46.0028 31.022 46.0046 31.0201 46.0068 31.0183C46.0114 31.014 46.0156 31.0101 46.0202 31.0058C46.0223 31.0036 46.0248 31.0015 46.0269 30.9994C46.0312 30.9951 46.0355 30.9911 46.0394 30.9872C46.0419 30.985 46.044 30.9829 46.0461 30.9805C46.0507 30.9762 46.055 30.9716 46.0596 30.9673C46.0614 30.9655 46.0632 30.9637 46.0648 30.9618C46.0712 30.9557 46.0773 30.9493 46.0834 30.9429C46.0837 30.9426 46.084 30.9423 46.0843 30.942C46.0901 30.9359 46.0959 30.9301 46.1014 30.924C46.1032 30.9219 46.1053 30.9197 46.1072 30.9179C46.1111 30.9133 46.1154 30.9087 46.1194 30.9042C46.1215 30.902 46.1233 30.8999 46.1255 30.8978C46.1295 30.8932 46.1334 30.8886 46.1374 30.8843C46.1392 30.8819 46.1414 30.8797 46.1432 30.8776C46.1475 30.8727 46.1517 30.8675 46.156 30.8627C46.1575 30.8611 46.1591 30.8593 46.1606 30.8575C46.1661 30.8508 46.1719 30.844 46.1774 30.8373C46.178 30.8364 46.1789 30.8355 46.1795 30.8349C46.1844 30.8288 46.1893 30.823 46.1941 30.8169C46.1957 30.8147 46.1975 30.8126 46.1993 30.8105C46.203 30.8056 46.207 30.8007 46.2106 30.7958C46.2125 30.7934 46.214 30.7912 46.2158 30.7891C46.2195 30.7842 46.2234 30.7793 46.2271 30.7745C46.2289 30.772 46.2305 30.7699 46.2323 30.7674C46.2363 30.7623 46.2402 30.7568 46.2442 30.7513C46.2454 30.7497 46.2466 30.7479 46.2479 30.7464C46.253 30.7394 46.2582 30.732 46.2634 30.7247C46.264 30.7238 46.2646 30.7229 46.2653 30.722C46.2695 30.7159 46.2741 30.7095 46.2784 30.7031C46.2799 30.7006 46.2814 30.6985 46.2826 30.6963C46.2863 30.6915 46.2897 30.6863 46.293 30.6811C46.2939 30.6799 46.2949 30.6786 46.2955 30.6774C46.3336 30.7629 46.3547 30.8566 46.3547 30.9533V32.3595C46.3547 32.7361 46.0483 33.0425 45.6717 33.0425H45.1917C44.8731 33.0425 44.6127 33.2973 44.606 33.6159C44.5691 35.3365 43.837 36.9353 42.598 38.0025C42.2593 38.2939 41.9065 38.5484 41.5406 38.7654C41.5314 38.7703 41.522 38.7752 41.5125 38.7807C40.5146 39.3654 39.4153 39.6736 38.2444 39.698C38.2404 39.698 38.2365 39.698 38.2328 39.698C38.216 39.6983 38.1992 39.6986 38.1825 39.6989C38.1657 39.6986 38.1489 39.6983 38.1321 39.698C38.1281 39.698 38.1242 39.698 38.1205 39.698C36.9493 39.6736 35.85 39.3654 34.8524 38.7807C34.8429 38.7752 34.8335 38.7703 34.824 38.7651C34.4584 38.5481 34.106 38.2939 33.7672 38.0025ZM35.0837 47.7985C34.5933 47.9655 34.0562 47.8217 33.7147 47.4323L30.8534 44.167L33.257 43.4968L37.0762 47.1198L35.0837 47.7985ZM34.5906 43.1465C34.9336 42.7037 35.1426 42.133 35.1426 41.5785V40.2412C36.045 40.6288 37.0088 40.8388 38.0265 40.8677H38.0268C38.0418 40.868 38.0564 40.8687 38.0714 40.869H38.0784C38.0918 40.8693 38.1049 40.8696 38.1181 40.8699H38.1281C38.144 40.8702 38.1602 40.8705 38.1763 40.8708H38.1895C38.2056 40.8705 38.2215 40.8702 38.2377 40.8699H38.2475C38.2609 40.8696 38.274 40.8693 38.2871 40.869H38.2945C38.3091 40.8687 38.3241 40.868 38.339 40.8677C39.3568 40.8388 40.3205 40.6288 41.2232 40.2412V41.5785C41.2232 42.133 41.4319 42.7037 41.7749 43.1465L38.1828 46.5543L34.5906 43.1465ZM42.6508 47.4323C42.3096 47.8217 41.7722 47.9658 41.2818 47.7985L39.2893 47.1198L43.1089 43.4968L45.5121 44.167L42.6508 47.4323ZM58.1722 53.2269C58.1722 53.2471 58.156 53.2636 58.1356 53.2636H57.6812C57.1605 53.2636 56.6994 53.5968 56.534 54.093C56.4614 54.3112 56.3723 54.5264 56.2691 54.732C56.035 55.2002 56.1251 55.7623 56.4934 56.1306L56.8148 56.452C56.8178 56.4551 56.8254 56.4627 56.8254 56.4779C56.8254 56.4932 56.8178 56.5008 56.8148 56.5039L55.8483 57.4704C55.8455 57.4731 55.8376 57.4813 55.8223 57.4813C55.8071 57.4813 55.7995 57.4734 55.7964 57.4704L55.4754 57.1493C55.107 56.7807 54.5446 56.6906 54.0768 56.9247C53.8711 57.0279 53.6559 57.1167 53.4374 57.1896C52.9412 57.3547 52.608 57.8158 52.608 58.3367V58.7911C52.608 58.8113 52.5915 58.8278 52.5713 58.8278H51.2045C51.184 58.8278 51.1679 58.8116 51.1679 58.7911V58.3367C51.1679 57.8158 50.8343 57.3547 50.3384 57.1896C50.1199 57.117 49.9047 57.0279 49.6991 56.925C49.5254 56.838 49.339 56.7959 49.154 56.7959C48.8406 56.7959 48.5321 56.9177 48.3005 57.1493L47.9791 57.4707C47.9648 57.4847 47.9416 57.4847 47.9275 57.4707L46.961 56.5039C46.9467 56.4895 46.9467 56.4663 46.9607 56.4523L47.2821 56.131C47.6504 55.7626 47.7408 55.2005 47.5064 54.732C47.4039 54.527 47.3144 54.3118 47.2418 54.093C47.0764 53.5971 46.6153 53.2636 46.0944 53.2636H45.64C45.6198 53.2636 45.6033 53.2471 45.6033 53.2269V51.8598C45.6033 51.8396 45.6198 51.8231 45.64 51.8231H46.0944C46.6153 51.8231 47.0764 51.4899 47.2415 50.994C47.3144 50.7755 47.4035 50.5603 47.5064 50.3546C47.7408 49.8865 47.6504 49.3244 47.2821 48.956L46.961 48.6347C46.9467 48.6204 46.9467 48.5972 46.9607 48.5828L47.9275 47.6163C47.9416 47.602 47.9648 47.602 47.9791 47.6163L48.3005 47.9374C48.6691 48.306 49.2309 48.396 49.6991 48.162C49.905 48.0588 50.1199 47.9697 50.3384 47.8971C50.8346 47.732 51.1679 47.2709 51.1679 46.7499V46.2955C51.1679 46.2754 51.184 46.2589 51.2045 46.2589H51.874H51.889H52.5713C52.5915 46.2589 52.608 46.2751 52.608 46.2955V46.7499C52.608 47.2709 52.9415 47.732 53.4374 47.8971C53.6556 47.9697 53.8708 48.0588 54.0768 48.1617C54.5449 48.396 55.107 48.3057 55.4754 47.9374L55.7967 47.616C55.7995 47.6133 55.8074 47.6057 55.8223 47.6057C55.8376 47.6057 55.8455 47.6133 55.8483 47.6163L56.8148 48.5828C56.8178 48.5859 56.8254 48.5935 56.8254 48.6088C56.8254 48.624 56.8178 48.6316 56.8148 48.6347L56.4937 48.956C56.1254 49.3244 56.035 49.8865 56.2691 50.3543C56.3723 50.5603 56.4614 50.7755 56.534 50.994C56.6994 51.4899 57.1605 51.8231 57.6815 51.8231H58.1359C58.156 51.8231 58.1725 51.8396 58.1725 51.8598V53.2269H58.1722Z" fill="white"/>
<path d="M51.888 49.6887C50.3142 49.6887 49.0337 50.9695 49.0337 52.5433C49.0337 54.1174 50.3142 55.3979 51.888 55.3979C53.4621 55.3979 54.7426 54.1174 54.7426 52.5433C54.7426 50.9695 53.4621 49.6887 51.888 49.6887ZM51.888 54.2261C50.9603 54.2261 50.2056 53.4711 50.2056 52.5433C50.2056 51.6156 50.9603 50.8606 51.888 50.8606C52.816 50.8606 53.5707 51.6156 53.5707 52.5433C53.5707 53.4711 52.816 54.2261 51.888 54.2261Z" fill="white"/>
<path d="M34.6019 54.5792C35.1094 54.5792 35.5223 54.1663 35.5223 53.6588V52.1204C35.5223 51.6129 35.1094 51.2 34.6019 51.2H30.1338C29.6263 51.2 29.2134 51.6129 29.2134 52.1204V53.6588C29.2134 54.1663 29.6263 54.5792 30.1338 54.5792H34.6019ZM30.3853 52.3718H34.3504V53.4073H30.3853V52.3718Z" fill="white"/>
</svg>
