<svg width="80" height="80" viewBox="0 0 80 80" fill="none" xmlns="http://www.w3.org/2000/svg">
<path d="M40 0L74.641 20L74.641 60L40 80L5.35898 60L5.35898 20L40 0Z" fill="#FB4343"/>
<g clip-path="url(#clip0_777_477)">
<path d="M60.9315 35.9122C60.8731 35.7818 59.4644 32.6852 56.311 29.6671C53.4207 26.9011 48.4183 23.6038 41.0001 23.6038C33.5818 23.6038 28.5793 26.9011 25.689 29.6671C22.5343 32.6864 21.1268 35.782 21.0684 35.9123C20.9036 36.2802 21.0458 36.7132 21.3967 36.9117L24.3829 38.601V55.6147C24.3829 56.0461 24.7328 56.396 25.1642 56.396H56.7717C57.2031 56.396 57.5529 56.0461 57.5529 55.6147V38.6008L60.5971 36.9151C60.9522 36.7186 61.0976 36.2826 60.9315 35.9122ZM34.4961 48.6682H47.5037V51.0298H34.4961V48.6682ZM32.7946 43.1816V41.1551H49.2053V43.1816H32.7946ZM47.5037 44.744V47.1057H34.4961V44.744H47.5037ZM34.4961 54.8336V52.5923H47.5037V54.8336H34.4961ZM57.1371 37.0451C54.7324 32.1413 49.9009 28.7132 44.5463 27.7669C44.1214 27.6921 43.7161 27.9754 43.641 28.4003C43.5683 28.8115 43.8493 29.2305 44.2743 29.3056C49.2912 30.1922 53.9735 33.5434 55.9904 38.294V54.8336H49.0661V44.744H49.9864C50.4178 44.744 50.7676 44.3942 50.7676 43.9628V40.3738C50.7676 39.9424 50.4178 39.5926 49.9864 39.5926H32.0133C31.5819 39.5926 31.2321 39.9424 31.2321 40.3738V43.9628C31.2321 44.3942 31.5819 44.744 32.0133 44.744H32.9336V54.8335H25.9455V38.3071C28.0394 33.5766 32.6545 30.2085 37.7031 29.3093C38.1279 29.2337 38.4109 28.828 38.3352 28.4032C38.2691 28.0314 37.9482 27.7211 37.5868 27.7592C32.1589 28.331 27.1045 32.407 24.8138 37.0495L22.8142 35.9183C23.3604 34.9101 24.6244 32.8488 26.7694 30.796C29.453 28.2277 34.1003 25.1662 41.0001 25.1662C47.8998 25.1662 52.5472 28.2277 55.2307 30.796C57.3706 32.8441 58.6342 34.9017 59.1826 35.9124L57.1371 37.0451Z" fill="white"/>
<path d="M41.7211 27.9461C41.4531 27.3023 40.5002 27.3218 40.2643 27.9821C40.0264 28.6484 40.7676 29.2727 41.3847 28.9243C41.7248 28.7323 41.8689 28.3063 41.7211 27.9461Z" fill="white"/>
</g>
<defs>
<clipPath id="clip0_777_477">
<rect width="40" height="40" fill="white" transform="translate(21 20)"/>
</clipPath>
</defs>
</svg>
